<?xml version="1.0" standalone="no"?>
<!DOCTYPE svg PUBLIC "-//W3C//DTD SVG 20010904//EN"
 "http://www.w3.org/TR/2001/REC-SVG-20010904/DTD/svg10.dtd">
<svg version="1.0" xmlns="http://www.w3.org/2000/svg"
 width="1965.000000pt" height="1911.000000pt" viewBox="0 0 1965.000000 1911.000000"
 preserveAspectRatio="xMidYMid meet">

<g transform="translate(0.000000,1911.000000) scale(0.100000,-0.100000)"
fill="#000000" stroke="none">
<path d="M9545 19104 c-1150 -38 -2224 -249 -3269 -641 -1036 -389 -2010 -958
-2856 -1667 -1937 -1624 -3138 -3887 -3374 -6356 -54 -567 -54 -1203 0 -1770
236 -2469 1437 -4732 3374 -6356 1539 -1291 3459 -2085 5480 -2268 601 -55
1245 -55 1850 0 1653 148 3241 707 4622 1625 1167 776 2166 1809 2890 2989
1118 1821 1579 3949 1313 6065 -319 2534 -1667 4829 -3759 6400 -843 632
-1805 1136 -2811 1470 -831 276 -1686 439 -2590 495 -175 10 -711 19 -870 14z
m488 -520 c72 -7 77 -8 77 -30 0 -24 1 -24 115 -24 l115 0 0 -40 0 -40 80 0
80 0 0 -40 0 -40 80 0 80 0 0 -40 0 -40 40 0 40 0 0 -40 c0 -39 1 -40 35 -40
33 0 35 -2 35 -35 0 -34 1 -35 40 -35 l40 0 0 -40 0 -40 40 0 40 0 0 -40 0
-40 40 0 40 0 0 80 0 80 -40 0 c-39 0 -40 1 -40 35 0 34 -1 35 -40 35 l-40 0
0 40 0 40 -40 0 -40 0 0 40 0 40 200 0 200 0 0 -40 0 -40 195 0 195 0 0 -40 0
-40 195 0 195 0 0 -35 0 -35 195 0 195 0 0 -40 0 -40 120 0 120 0 0 -40 0 -40
115 0 115 0 0 -40 0 -40 120 0 120 0 0 -40 0 -40 120 0 120 0 0 -40 c0 -39 1
-40 35 -40 33 0 35 -2 35 -35 l0 -35 80 0 80 0 0 -40 0 -40 235 0 235 0 0 -40
0 -40 40 0 40 0 0 -40 0 -40 40 0 40 0 0 -80 0 -80 80 0 80 0 0 -40 0 -40 75
0 75 0 0 -35 0 -35 80 0 80 0 0 -40 0 -40 40 0 40 0 0 -40 0 -40 75 0 75 0 0
-40 0 -40 80 0 80 0 0 -40 0 -40 40 0 40 0 0 -40 0 -40 40 0 40 0 0 -40 0 -40
40 0 c39 0 40 -1 40 -35 l0 -35 75 0 75 0 0 -40 0 -40 40 0 40 0 0 -40 0 -40
40 0 40 0 0 -40 0 -40 40 0 40 0 0 -40 0 -40 40 0 40 0 0 -40 0 -40 75 0 75 0
0 -40 0 -40 40 0 c39 0 40 -1 40 -35 0 -34 1 -35 40 -35 l40 0 0 -40 0 -40 40
0 40 0 0 -40 0 -40 40 0 40 0 0 -40 0 -40 40 0 40 0 0 -40 0 -40 40 0 40 0 0
-40 c0 -39 1 -40 35 -40 l35 0 0 -75 0 -75 40 0 40 0 0 -40 0 -40 40 0 40 0 0
-40 0 -40 40 0 40 0 0 -40 0 -40 40 0 40 0 0 -80 0 -80 40 0 c39 0 40 -1 40
-35 0 -33 2 -35 35 -35 34 0 35 -1 35 -40 l0 -40 40 0 40 0 0 -40 0 -40 40 0
40 0 0 -80 0 -80 40 0 40 0 0 -40 0 -40 40 0 40 0 0 -40 0 -40 40 0 40 0 0
-75 0 -75 40 0 40 0 0 -40 c0 -39 1 -40 35 -40 l35 0 0 -80 0 -80 40 0 40 0 0
-80 0 -80 40 0 c39 0 40 -1 40 -35 0 -34 1 -35 40 -35 l40 0 0 -80 0 -80 -40
0 -40 0 0 -40 0 -40 -80 0 -80 0 0 -40 c0 -39 -1 -40 -35 -40 -34 0 -35 -1
-35 -40 l0 -40 -80 0 -80 0 0 -35 0 -35 -80 0 -80 0 0 -40 0 -40 -40 0 -40 0
0 -40 0 -40 -75 0 -75 0 0 -40 0 -40 -80 0 -80 0 0 -40 0 -40 -80 0 -80 0 0
80 0 80 -40 0 -40 0 0 80 0 80 -35 0 -35 0 0 75 0 75 -40 0 -40 0 0 40 0 40
-40 0 -40 0 0 80 0 80 -40 0 -40 0 0 40 0 40 -40 0 -40 0 0 75 0 75 -40 0 -40
0 0 40 0 40 -40 0 -40 0 0 40 c0 39 -1 40 -35 40 l-35 0 0 80 0 80 -40 0 -40
0 0 40 0 40 -40 0 c-39 0 -40 1 -40 35 0 34 -1 35 -40 35 l-40 0 0 40 0 40
-40 0 -40 0 0 40 0 40 -40 0 -40 0 0 40 c0 39 -1 40 -35 40 -34 0 -35 1 -35
40 l0 40 -40 0 -40 0 0 40 0 40 -40 0 -40 0 0 40 0 40 -40 0 c-39 0 -40 1 -40
35 0 34 -1 35 -40 35 l-40 0 0 40 0 40 -40 0 -40 0 0 40 0 40 -40 0 -40 0 0
40 c0 39 -1 40 -35 40 -34 0 -35 1 -35 40 l0 40 -80 0 -80 0 0 40 0 40 -40 0
-40 0 0 40 0 40 -40 0 c-39 0 -40 1 -40 35 0 34 -1 35 -40 35 l-40 0 0 40 0
40 -75 0 -75 0 0 40 0 40 -40 0 -40 0 0 40 0 40 -40 0 -40 0 0 40 0 40 -80 0
-80 0 0 40 0 40 -75 0 -75 0 0 35 c0 34 -1 35 -40 35 l-40 0 0 40 0 40 -80 0
-80 0 0 40 0 40 -80 0 -80 0 0 40 0 40 -115 0 -115 0 0 40 0 40 -80 0 -80 0 0
40 0 40 -80 0 -80 0 0 40 0 40 -75 0 -75 0 0 35 0 35 -120 0 -120 0 0 40 0 40
-115 0 -115 0 0 40 0 40 -120 0 -120 0 0 40 0 40 -155 0 -155 0 0 40 0 40
-195 0 -195 0 0 40 0 40 -80 0 -80 0 0 -120 0 -120 -40 0 -40 0 0 -80 0 -80
-40 0 -40 0 0 -75 0 -75 -40 0 -40 0 0 -80 0 -80 -75 0 -75 0 0 -40 0 -40 -40
0 -40 0 0 -40 0 -40 -40 0 -40 0 0 -40 0 -40 -80 0 -80 0 0 -35 c0 -34 -1 -35
-40 -35 l-40 0 0 -235 0 -235 80 0 80 0 0 -40 0 -40 195 0 195 0 0 40 0 40
235 0 235 0 0 -40 0 -40 315 0 315 0 0 -40 0 -40 80 0 80 0 0 -40 0 -40 80 0
80 0 0 -40 0 -40 75 0 75 0 0 -40 0 -40 40 0 40 0 0 -40 0 -40 40 0 c39 0 40
-1 40 -35 0 -34 1 -35 40 -35 l40 0 0 -80 0 -80 40 0 40 0 0 -40 c0 -39 1 -40
35 -40 l35 0 0 -120 0 -120 40 0 40 0 0 -275 0 -275 40 0 c39 0 40 -1 40 -35
l0 -35 80 0 80 0 0 -40 0 -40 40 0 40 0 0 -80 0 -80 40 0 40 0 0 -155 0 -155
35 0 35 0 0 550 0 550 40 0 40 0 0 75 0 75 120 0 120 0 0 -40 0 -40 40 0 40 0
0 -1335 0 -1335 -40 0 c-39 0 -40 -1 -40 -35 l0 -35 -80 0 -80 0 0 35 c0 34
-1 35 -40 35 l-40 0 0 40 0 40 -40 0 -40 0 0 550 0 550 -35 0 -35 0 0 -75 0
-75 -40 0 -40 0 0 -80 0 -80 -40 0 -40 0 0 -40 0 -40 -40 0 -40 0 0 -40 0 -40
-40 0 -40 0 0 -40 0 -40 -40 0 -40 0 0 -155 0 -155 -40 0 -40 0 0 -120 0 -120
-35 0 c-34 0 -35 -1 -35 -40 l0 -40 -40 0 c-39 0 -40 -1 -40 -35 0 -34 -1 -35
-40 -35 l-40 0 0 -40 0 -40 80 0 80 0 0 -40 0 -40 115 0 115 0 0 -40 0 -40 80
0 80 0 0 -40 0 -40 40 0 40 0 0 -40 0 -40 40 0 c39 0 40 -1 40 -35 l0 -35 75
0 75 0 0 -40 0 -40 40 0 40 0 0 -40 0 -40 40 0 40 0 0 -40 0 -40 40 0 40 0 0
-80 0 -80 40 0 40 0 0 -40 c0 -39 1 -40 35 -40 l35 0 0 -75 0 -75 40 0 40 0 0
-120 0 -120 40 0 40 0 0 -115 0 -115 40 0 40 0 0 -315 0 -315 -40 0 -40 0 0
-160 0 -160 -40 0 -40 0 0 -115 0 -115 -40 0 -40 0 0 -40 c0 -39 -1 -40 -35
-40 l-35 0 0 -80 0 -80 -40 0 -40 0 0 -40 0 -40 -40 0 c-39 0 -40 -1 -40 -35
0 -34 -1 -35 -40 -35 l-40 0 0 -80 0 -80 -80 0 -80 0 0 -40 c0 -39 -1 -40 -35
-40 -34 0 -35 -1 -35 -40 l0 -40 -40 0 -40 0 0 -80 0 -80 -40 0 -40 0 0 -75 0
-75 -40 0 -40 0 0 -40 0 -40 -40 0 -40 0 0 -40 0 -40 -40 0 -40 0 0 -40 0 -40
-40 0 -40 0 0 -40 c0 -39 -1 -40 -35 -40 l-35 0 0 -75 0 -75 -80 0 -80 0 0
-40 0 -40 -40 0 -40 0 0 -40 0 -40 -40 0 -40 0 0 -40 0 -40 -40 0 -40 0 0 -40
c0 -39 -1 -40 -35 -40 -34 0 -35 -1 -35 -40 l0 -40 -40 0 c-39 0 -40 -1 -40
-35 0 -34 -1 -35 -40 -35 l-40 0 0 -40 0 -40 -40 0 -40 0 0 -40 0 -40 -40 0
-40 0 0 -40 0 -40 -40 0 -40 0 0 -40 0 -40 -40 0 -40 0 0 -40 c0 -39 -1 -40
-35 -40 -34 0 -35 -1 -35 -40 l0 -40 -40 0 c-39 0 -40 -1 -40 -35 0 -34 -1
-35 -40 -35 l-40 0 0 -40 0 -40 -40 0 -40 0 0 -40 0 -40 -40 0 -40 0 0 -80 0
-80 -40 0 -40 0 0 -40 c0 -39 -1 -40 -35 -40 -34 0 -35 -1 -35 -40 l0 -40 -80
0 -80 0 0 -35 0 -35 -120 0 -120 0 0 35 c0 34 -1 35 -40 35 l-40 0 0 40 c0 39
-1 40 -35 40 -34 0 -35 1 -35 40 0 39 1 40 35 40 l35 0 0 80 0 80 40 0 40 0 0
40 0 40 40 0 40 0 0 40 0 40 40 0 c39 0 40 1 40 35 0 34 1 35 40 35 l40 0 0
40 0 40 40 0 40 0 0 40 0 40 40 0 40 0 0 40 c0 39 1 40 35 40 34 0 35 1 35 40
l0 40 40 0 40 0 0 40 0 40 40 0 40 0 0 40 0 40 40 0 c39 0 40 1 40 35 0 34 1
35 40 35 l40 0 0 40 0 40 40 0 40 0 0 40 c0 39 1 40 35 40 34 0 35 1 35 40 l0
40 40 0 40 0 0 40 0 40 40 0 40 0 0 40 0 40 40 0 40 0 0 40 0 40 40 0 c39 0
40 1 40 35 0 34 1 35 40 35 l40 0 0 40 0 40 40 0 40 0 0 40 c0 39 1 40 35 40
34 0 35 1 35 40 l0 40 40 0 40 0 0 80 0 80 40 0 c39 0 40 1 40 35 0 34 1 35
40 35 l40 0 0 40 0 40 40 0 40 0 0 40 0 40 40 0 40 0 0 80 0 80 35 0 35 0 0
115 0 115 40 0 40 0 0 120 0 120 40 0 40 0 0 470 0 470 -40 0 -40 0 0 120 0
120 -40 0 -40 0 0 75 0 75 -35 0 -35 0 0 120 0 120 -40 0 -40 0 0 40 0 40 -40
0 -40 0 0 40 0 40 -40 0 -40 0 0 75 0 75 235 0 235 0 0 40 0 40 40 0 40 0 0
-75 0 -75 40 0 40 0 0 -40 0 -40 40 0 40 0 0 -40 0 -40 40 0 40 0 0 -120 0
-120 35 0 35 0 0 -115 0 -115 40 0 40 0 0 -470 0 -470 40 0 40 0 0 115 0 115
40 0 40 0 0 155 0 155 40 0 40 0 0 160 0 160 -40 0 -40 0 0 155 0 155 -40 0
-40 0 0 80 0 80 -40 0 -40 0 0 80 0 80 -40 0 -40 0 0 40 c0 39 -1 40 -35 40
l-35 0 0 75 0 75 -40 0 -40 0 0 40 0 40 -80 0 -80 0 0 40 0 40 -40 0 -40 0 0
40 0 40 -80 0 -80 0 0 40 0 40 -75 0 -75 0 0 40 0 40 -120 0 -120 0 0 35 0 35
-155 0 -155 0 0 40 0 40 -2275 0 -2275 0 0 -40 0 -40 -160 0 -160 0 0 -35 0
-35 -115 0 -115 0 0 -40 0 -40 -80 0 -80 0 0 -40 0 -40 -80 0 -80 0 0 -40 0
-40 -75 0 -75 0 0 -40 0 -40 -40 0 -40 0 0 -40 0 -40 -40 0 -40 0 0 -40 0 -40
-40 0 -40 0 0 -75 0 -75 -40 0 -40 0 0 -40 0 -40 -40 0 -40 0 0 -120 0 -120
-35 0 -35 0 0 -75 0 -75 -40 0 -40 0 0 -395 0 -395 40 0 40 0 0 -80 0 -80 35
0 35 0 0 275 0 275 40 0 40 0 0 200 0 200 40 0 40 0 0 115 0 115 40 0 40 0 0
80 0 80 40 0 40 0 0 80 0 80 80 0 80 0 0 35 c0 33 2 35 35 35 33 0 35 -2 35
-35 l0 -35 80 0 80 0 0 -40 0 -40 80 0 80 0 0 -80 0 -80 -40 0 -40 0 0 -80 0
-80 -40 0 -40 0 0 -40 0 -40 -40 0 -40 0 0 -115 0 -115 -40 0 -40 0 0 -590 0
-590 40 0 40 0 0 -115 0 -115 40 0 40 0 0 -120 0 -120 40 0 40 0 0 -40 0 -40
40 0 40 0 0 -40 0 -40 40 0 40 0 0 -75 0 -75 40 0 40 0 0 -40 c0 -39 1 -40 35
-40 34 0 35 -1 35 -40 l0 -40 40 0 40 0 0 -40 0 -40 40 0 40 0 0 -40 0 -40 40
0 40 0 0 -40 0 -40 40 0 c39 0 40 -1 40 -35 0 -34 1 -35 40 -35 l40 0 0 -40
c0 -39 1 -40 35 -40 34 0 35 -1 35 -40 l0 -40 40 0 40 0 0 -40 0 -40 40 0 40
0 0 -40 0 -40 40 0 40 0 0 -40 0 -40 40 0 40 0 0 -40 0 -40 40 0 c39 0 40 -1
40 -35 0 -34 1 -35 40 -35 l40 0 0 -40 c0 -39 1 -40 35 -40 34 0 35 -1 35 -40
l0 -40 40 0 40 0 0 -40 0 -40 40 0 40 0 0 -40 0 -40 40 0 40 0 0 -40 0 -40 40
0 40 0 0 -40 0 -40 40 0 c39 0 40 -1 40 -35 0 -33 2 -35 35 -35 34 0 35 -1 35
-40 l0 -40 40 0 40 0 0 -40 0 -40 40 0 40 0 0 -160 0 -160 -40 0 c-39 0 -40
-1 -40 -35 l0 -35 -115 0 -115 0 0 35 c0 34 -1 35 -40 35 l-40 0 0 40 0 40
-80 0 -80 0 0 40 0 40 -40 0 -40 0 0 80 0 80 -35 0 c-34 0 -35 1 -35 40 l0 40
-40 0 -40 0 0 40 0 40 -40 0 c-39 0 -40 1 -40 35 l0 35 -80 0 -80 0 0 80 0 80
-40 0 -40 0 0 40 0 40 -40 0 -40 0 0 40 c0 39 -1 40 -35 40 -34 0 -35 1 -35
40 l0 40 -80 0 -80 0 0 40 0 40 -40 0 c-39 0 -40 1 -40 35 0 34 -1 35 -40 35
l-40 0 0 80 0 80 -75 0 -75 0 0 80 0 80 -80 0 -80 0 0 40 0 40 -40 0 -40 0 0
40 0 40 -40 0 c-39 0 -40 1 -40 35 0 34 -1 35 -40 35 l-40 0 0 80 0 80 -40 0
-40 0 0 40 c0 39 -1 40 -35 40 -34 0 -35 1 -35 40 l0 40 -40 0 -40 0 0 40 0
40 -40 0 -40 0 0 75 0 75 -40 0 -40 0 0 40 0 40 -40 0 -40 0 0 40 0 40 -40 0
-40 0 0 40 0 40 -40 0 -40 0 0 40 c0 39 -1 40 -35 40 -34 0 -35 1 -35 40 l0
40 -40 0 c-39 0 -40 1 -40 35 0 34 -1 35 -40 35 l-40 0 0 40 0 40 -40 0 -40 0
0 80 0 80 -40 0 -40 0 0 80 0 80 -40 0 -40 0 0 115 0 115 -35 0 -35 0 0 510 0
510 35 0 35 0 0 80 0 80 40 0 40 0 0 120 0 120 40 0 40 0 0 75 0 75 40 0 40 0
0 40 0 40 40 0 40 0 0 40 0 40 40 0 40 0 0 40 c0 39 1 40 35 40 34 0 35 1 35
40 l0 40 40 0 40 0 0 40 0 40 40 0 c39 0 40 1 40 35 0 34 1 35 40 35 l40 0 0
40 0 40 80 0 80 0 0 40 0 40 75 0 75 0 0 40 0 40 120 0 120 0 0 40 0 40 80 0
80 0 0 40 0 40 -40 0 c-39 0 -40 1 -40 35 0 34 -1 35 -40 35 l-40 0 0 40 0 40
-40 0 -40 0 0 40 0 40 -40 0 -40 0 0 160 0 160 -40 0 -40 0 0 115 0 115 -35 0
c-34 0 -35 1 -35 40 l0 40 -40 0 -40 0 0 40 0 40 -40 0 -40 0 0 40 0 40 -40 0
-40 0 0 115 0 115 -80 0 -80 0 0 -590 0 -590 -40 0 c-39 0 -40 -1 -40 -35 l0
-35 -75 0 -75 0 0 35 c0 34 -1 35 -40 35 l-40 0 0 1335 0 1335 40 0 40 0 0 40
0 40 75 0 75 0 0 -40 0 -40 40 0 40 0 0 -585 0 -585 80 0 80 0 0 195 0 195 40
0 40 0 0 40 0 40 40 0 40 0 0 40 0 40 40 0 c39 0 40 1 40 35 0 33 2 35 35 35
l35 0 0 200 0 200 40 0 40 0 0 155 0 155 40 0 40 0 0 80 0 80 40 0 40 0 0 40
0 40 40 0 40 0 0 40 0 40 40 0 c39 0 40 1 40 35 0 34 1 35 40 35 l40 0 0 40
c0 39 1 40 35 40 34 0 35 1 35 40 l0 40 40 0 40 0 0 40 0 40 80 0 80 0 0 40 0
40 115 0 115 0 0 40 0 40 200 0 200 0 0 40 0 40 275 0 275 0 0 -40 0 -40 310
0 310 0 0 40 0 40 40 0 40 0 0 235 0 235 -75 0 -75 0 0 35 c0 34 -1 35 -40 35
l-40 0 0 40 0 40 -80 0 -80 0 0 40 0 40 -40 0 -40 0 0 40 0 40 -40 0 -40 0 0
40 0 40 -40 0 -40 0 0 80 0 80 -35 0 -35 0 0 75 0 75 -40 0 -40 0 0 120 0 120
-40 0 -40 0 0 40 0 40 -80 0 -80 0 0 -40 0 -40 -195 0 -195 0 0 -40 0 -40
-155 0 -155 0 0 -40 0 -40 -120 0 -120 0 0 -40 0 -40 -115 0 -115 0 0 -40 0
-40 -120 0 -120 0 0 -35 0 -35 -80 0 -80 0 0 -40 0 -40 -75 0 -75 0 0 -40 0
-40 -80 0 -80 0 0 -40 0 -40 -80 0 -80 0 0 -40 0 -40 -80 0 -80 0 0 -40 0 -40
-75 0 -75 0 0 -40 0 -40 -80 0 -80 0 0 -35 0 -35 -80 0 -80 0 0 -40 c0 -39 -1
-40 -35 -40 -34 0 -35 -1 -35 -40 l0 -40 -40 0 -40 0 0 -40 0 -40 -80 0 -80 0
0 -40 0 -40 -40 0 -40 0 0 -40 0 -40 -80 0 -80 0 0 -35 c0 -33 -2 -35 -35 -35
-34 0 -35 -1 -35 -40 l0 -40 -40 0 -40 0 0 -40 0 -40 -40 0 -40 0 0 -40 0 -40
-40 0 -40 0 0 -40 0 -40 -80 0 -80 0 0 -40 c0 -39 -1 -40 -35 -40 -34 0 -35
-1 -35 -40 l0 -40 -40 0 c-39 0 -40 -1 -40 -35 0 -34 -1 -35 -40 -35 l-40 0 0
-40 0 -40 -40 0 -40 0 0 -40 0 -40 -40 0 -40 0 0 -40 0 -40 -40 0 -40 0 0 -40
0 -40 -40 0 -40 0 0 -80 0 -80 -35 0 c-33 0 -35 -2 -35 -35 0 -34 -1 -35 -40
-35 l-40 0 0 -40 0 -40 -40 0 -40 0 0 -40 0 -40 -40 0 -40 0 0 -80 0 -80 -40
0 -40 0 0 -40 0 -40 -40 0 -40 0 0 -40 c0 -39 -1 -40 -35 -40 l-35 0 0 -75 0
-75 -40 0 -40 0 0 -40 0 -40 -40 0 -40 0 0 -40 0 -40 -40 0 -40 0 0 -80 0 -80
-40 0 -40 0 0 -75 0 -75 -40 0 -40 0 0 -80 0 -80 -40 0 -40 0 0 -40 0 -40 -75
0 -75 0 0 40 0 40 -80 0 -80 0 0 40 0 40 -40 0 -40 0 0 40 0 40 -75 0 -75 0 0
40 0 40 -80 0 -80 0 0 35 0 35 -80 0 -80 0 0 40 0 40 -40 0 -40 0 0 40 0 40
-75 0 -75 0 0 40 0 40 -40 0 -40 0 0 40 0 40 40 0 40 0 0 75 0 75 35 0 c34 0
35 1 35 40 l0 40 40 0 40 0 0 80 0 80 40 0 40 0 0 80 0 80 40 0 40 0 0 40 0
40 40 0 40 0 0 75 0 75 40 0 40 0 0 40 0 40 40 0 40 0 0 40 c0 39 1 40 35 40
l35 0 0 80 0 80 40 0 40 0 0 40 0 40 40 0 c39 0 40 1 40 35 0 34 1 35 40 35
l40 0 0 40 0 40 40 0 40 0 0 80 0 80 40 0 40 0 0 40 c0 39 1 40 35 40 34 0 35
1 35 40 l0 40 40 0 40 0 0 40 0 40 40 0 c39 0 40 1 40 35 0 34 1 35 40 35 l40
0 0 40 0 40 40 0 40 0 0 40 0 40 40 0 40 0 0 80 0 80 75 0 75 0 0 40 0 40 40
0 c39 0 40 1 40 35 0 34 1 35 40 35 l40 0 0 40 0 40 40 0 40 0 0 40 0 40 40 0
40 0 0 40 0 40 40 0 40 0 0 40 0 40 75 0 75 0 0 40 0 40 40 0 40 0 0 40 0 40
40 0 c39 0 40 1 40 35 0 34 1 35 40 35 l40 0 0 40 0 40 80 0 80 0 0 40 c0 39
1 40 35 40 34 0 35 1 35 40 l0 40 80 0 80 0 0 40 0 40 40 0 40 0 0 40 0 40 80
0 80 0 0 40 c0 39 1 40 35 40 33 0 35 2 35 35 l0 35 80 0 80 0 0 40 0 40 80 0
80 0 0 40 0 40 40 0 40 0 0 80 0 80 40 0 40 0 0 40 0 40 235 0 235 0 0 40 0
40 75 0 75 0 0 35 0 35 80 0 80 0 0 40 0 40 80 0 80 0 0 40 0 40 115 0 115 0
0 40 0 40 160 0 160 0 0 40 0 40 115 0 115 0 0 40 0 40 160 0 160 0 0 35 0 35
195 0 195 0 0 40 0 40 235 0 235 0 0 40 0 40 155 0 155 0 0 -40 0 -40 -40 0
-40 0 0 -75 0 -75 40 0 c39 0 40 1 40 35 l0 35 80 0 80 0 0 40 0 40 40 0 40 0
0 40 0 40 40 0 40 0 0 40 0 40 75 0 75 0 0 40 0 40 120 0 120 0 0 24 c0 22 5
25 48 29 87 7 348 7 425 1z m-8083 -5274 l0 -40 40 0 40 0 0 -40 0 -40 75 0
75 0 0 -40 0 -40 80 0 80 0 0 -40 0 -40 80 0 80 0 0 -40 0 -40 75 0 75 0 0
-35 0 -35 80 0 80 0 0 -40 0 -40 40 0 40 0 0 -40 0 -40 -40 0 -40 0 0 -80 0
-80 -40 0 -40 0 0 -40 0 -40 -40 0 -40 0 0 40 0 40 -75 0 -75 0 0 40 0 40 -80
0 -80 0 0 40 0 40 -80 0 -80 0 0 40 0 40 -75 0 -75 0 0 40 0 40 -80 0 -80 0 0
35 0 35 -80 0 -80 0 0 40 0 40 -40 0 -40 0 0 80 0 80 40 0 40 0 0 80 0 80 120
0 120 0 0 -40z m16000 0 l0 -40 40 0 40 0 0 -80 0 -80 40 0 40 0 0 -40 0 -40
-80 0 -80 0 0 -40 0 -40 -75 0 -75 0 0 -35 0 -35 -80 0 -80 0 0 -40 0 -40 -80
0 -80 0 0 -40 0 -40 -75 0 -75 0 0 -40 0 -40 -80 0 -80 0 0 -40 0 -40 -80 0
-80 0 0 -40 0 -40 -40 0 -40 0 0 80 0 80 -35 0 c-34 0 -35 1 -35 40 l0 40 -40
0 -40 0 0 40 0 40 75 0 75 0 0 40 0 40 40 0 c39 0 40 1 40 35 l0 35 80 0 80 0
0 40 0 40 80 0 80 0 0 40 0 40 75 0 75 0 0 40 0 40 80 0 80 0 0 40 0 40 80 0
80 0 0 40 0 40 75 0 75 0 0 -40z m-16390 -1180 l0 -40 115 0 115 0 0 -40 0
-40 120 0 120 0 0 -40 0 -40 115 0 115 0 0 -40 0 -40 80 0 80 0 0 -35 0 -35
115 0 115 0 0 -40 0 -40 80 0 80 0 0 -40 0 -40 155 0 155 0 0 -40 0 -40 40 0
40 0 0 -40 0 -40 40 0 40 0 0 -75 0 -75 40 0 40 0 0 -1455 0 -1455 40 0 40 0
0 -195 0 -195 40 0 40 0 0 -40 0 -40 40 0 40 0 0 -40 c0 -39 1 -40 35 -40 34
0 35 -1 35 -40 l0 -40 40 0 40 0 0 -40 0 -40 40 0 c39 0 40 -1 40 -35 0 -34 1
-35 40 -35 l40 0 0 -40 0 -40 40 0 40 0 0 -40 0 -40 40 0 40 0 0 -40 c0 -39 1
-40 35 -40 34 0 35 -1 35 -40 l0 -40 40 0 40 0 0 -40 0 -40 40 0 40 0 0 -40 0
-40 40 0 c39 0 40 -1 40 -35 0 -34 1 -35 40 -35 l40 0 0 -40 0 -40 40 0 40 0
0 -40 0 -40 40 0 40 0 0 -40 c0 -39 1 -40 35 -40 34 0 35 -1 35 -40 l0 -40 80
0 80 0 0 -80 0 -80 40 0 c39 0 40 -1 40 -35 0 -34 1 -35 40 -35 l40 0 0 -40 0
-40 40 0 40 0 0 -40 c0 -39 1 -40 35 -40 34 0 35 -1 35 -40 l0 -40 40 0 40 0
0 -40 0 -40 40 0 40 0 0 -40 0 -40 40 0 40 0 0 -40 0 -40 40 0 c39 0 40 -1 40
-35 0 -34 1 -35 40 -35 l40 0 0 -40 0 -40 40 0 40 0 0 -40 c0 -39 1 -40 35
-40 34 0 35 -1 35 -40 l0 -40 120 0 120 0 0 40 0 40 40 0 40 0 0 40 0 40 40 0
40 0 0 115 0 115 -40 0 -40 0 0 80 0 80 -40 0 -40 0 0 40 0 40 -40 0 -40 0 0
80 0 80 -40 0 c-39 0 -40 1 -40 35 l0 35 -75 0 -75 0 0 80 0 80 -40 0 -40 0 0
40 0 40 -40 0 -40 0 0 40 0 40 -40 0 -40 0 0 40 0 40 -40 0 -40 0 0 40 0 40
-40 0 c-39 0 -40 1 -40 35 0 34 -1 35 -40 35 l-40 0 0 40 c0 39 -1 40 -35 40
-34 0 -35 1 -35 40 l0 40 -40 0 -40 0 0 80 0 80 -40 0 -40 0 0 40 0 40 -40 0
-40 0 0 40 0 40 -40 0 c-39 0 -40 1 -40 35 0 34 -1 35 -40 35 l-40 0 0 40 c0
39 -1 40 -35 40 -34 0 -35 1 -35 40 l0 40 -40 0 -40 0 0 40 0 40 -40 0 -40 0
0 40 0 40 -40 0 -40 0 0 40 0 40 -40 0 c-39 0 -40 1 -40 35 0 34 -1 35 -40 35
l-40 0 0 40 0 40 -40 0 -40 0 0 40 c0 39 -1 40 -35 40 -34 0 -35 1 -35 40 l0
40 -40 0 -40 0 0 80 0 80 -40 0 -40 0 0 40 0 40 -40 0 c-39 0 -40 1 -40 35 0
34 -1 35 -40 35 l-40 0 0 40 0 40 -40 0 -40 0 0 200 0 200 40 0 40 0 0 75 0
75 40 0 40 0 0 40 0 40 40 0 40 0 0 40 0 40 40 0 40 0 0 40 0 40 195 0 195 0
0 -40 0 -40 40 0 40 0 0 -40 0 -40 40 0 40 0 0 -40 0 -40 40 0 40 0 0 -40 c0
-39 1 -40 35 -40 33 0 35 -2 35 -35 l0 -35 80 0 80 0 0 -80 0 -80 40 0 40 0 0
-40 0 -40 80 0 80 0 0 -80 0 -80 75 0 75 0 0 -40 0 -40 40 0 40 0 0 -75 0 -75
40 0 40 0 0 -40 0 -40 40 0 40 0 0 -40 0 -40 40 0 40 0 0 -40 0 -40 40 0 40 0
0 -40 0 -40 75 0 75 0 0 -75 0 -75 40 0 40 0 0 -40 0 -40 40 0 40 0 0 -40 0
-40 40 0 40 0 0 -40 0 -40 75 0 75 0 0 -40 0 -40 40 0 40 0 0 -40 0 -40 40 0
40 0 0 -75 0 -75 80 0 80 0 0 -40 0 -40 40 0 40 0 0 -40 0 -40 40 0 40 0 0
-40 c0 -39 1 -40 35 -40 34 0 35 -1 35 -40 l0 -40 40 0 40 0 0 -40 0 -40 40 0
c39 0 40 -1 40 -35 0 -34 1 -35 40 -35 l40 0 0 -40 0 -40 40 0 40 0 0 -40 0
-40 40 0 40 0 0 -40 0 -40 75 0 75 0 0 -40 0 -40 40 0 40 0 0 -40 0 -40 40 0
40 0 0 -40 0 -40 40 0 c39 0 40 -1 40 -35 l0 -35 80 0 80 0 0 -40 c0 -39 1
-40 35 -40 34 0 35 -1 35 -40 l0 -40 40 0 40 0 0 -40 0 -40 40 0 40 0 0 -40 0
-40 40 0 40 0 0 -40 0 -40 40 0 40 0 0 -40 0 -40 40 0 c39 0 40 -1 40 -35 l0
-35 75 0 75 0 0 -80 0 -80 40 0 40 0 0 -40 0 -40 40 0 40 0 0 -40 0 -40 40 0
40 0 0 -40 0 -40 40 0 c39 0 40 -1 40 -35 0 -34 1 -35 40 -35 l40 0 0 -40 c0
-39 1 -40 35 -40 l35 0 0 -80 0 -80 40 0 40 0 0 -80 0 -80 40 0 40 0 0 -75 0
-75 40 0 40 0 0 -80 0 -80 40 0 40 0 0 -80 0 -80 40 0 40 0 0 -155 0 -155 40
0 40 0 0 -865 0 -865 35 0 35 0 0 -630 0 -630 -35 0 -35 0 0 -395 c0 -353 -2
-395 -16 -395 -48 0 -408 34 -584 56 -590 71 -1155 195 -1742 381 l-178 56 0
859 0 858 -35 0 -35 0 0 75 0 75 -40 0 -40 0 0 80 0 80 -40 0 -40 0 0 40 0 40
-40 0 -40 0 0 40 0 40 -40 0 -40 0 0 40 0 40 -40 0 -40 0 0 40 0 40 -40 0
c-39 0 -40 1 -40 35 l0 35 -75 0 -75 0 0 40 0 40 -80 0 -80 0 0 40 0 40 -80 0
-80 0 0 40 0 40 -75 0 -75 0 0 40 0 40 -40 0 -40 0 0 40 0 40 -80 0 -80 0 0
35 c0 34 -1 35 -40 35 l-40 0 0 40 0 40 -75 0 -75 0 0 40 0 40 -40 0 -40 0 0
40 0 40 -40 0 -40 0 0 40 0 40 -40 0 -40 0 0 40 0 40 -80 0 -80 0 0 75 0 75
-75 0 -75 0 0 40 0 40 -40 0 -40 0 0 40 0 40 -40 0 -40 0 0 40 0 40 -40 0 -40
0 0 40 0 40 -40 0 -40 0 0 80 0 80 -40 0 c-39 0 -40 1 -40 35 0 33 -2 35 -35
35 -34 0 -35 1 -35 40 l0 40 -40 0 -40 0 0 40 0 40 -40 0 -40 0 0 40 0 40 -40
0 -40 0 0 80 0 80 -40 0 -40 0 0 40 0 40 -40 0 c-39 0 -40 1 -40 35 0 33 -2
35 -35 35 l-35 0 0 80 0 80 -40 0 -40 0 0 40 0 40 -40 0 -40 0 0 40 0 40 -40
0 -40 0 0 75 0 75 -40 0 -40 0 0 40 0 40 -40 0 -40 0 0 80 0 80 -40 0 -40 0 0
80 0 80 -35 0 c-34 0 -35 1 -35 40 l0 40 -40 0 -40 0 0 75 0 75 -40 0 -40 0 0
40 0 40 -40 0 -40 0 0 80 0 80 -40 0 -40 0 0 40 0 40 -40 0 -40 0 0 75 0 75
-35 0 -35 0 0 80 0 80 -40 0 -40 0 0 80 0 80 -40 0 -40 0 0 155 0 155 -40 0
-40 0 0 395 0 395 -40 0 -40 0 0 1335 0 1335 40 0 40 0 0 115 0 115 -40 0 -40
0 0 40 0 40 -115 0 -115 0 0 40 0 40 -120 0 -120 0 0 40 0 40 -80 0 -80 0 0
40 0 40 -115 0 -115 0 0 35 0 35 -80 0 -80 0 0 120 0 120 40 0 40 0 0 40 0 40
120 0 120 0 0 -40z m16790 0 l0 -40 40 0 40 0 0 -120 0 -120 -80 0 -80 0 0
-35 0 -35 -120 0 -120 0 0 -40 0 -40 -75 0 -75 0 0 -40 0 -40 -120 0 -120 0 0
-40 0 -40 -115 0 -115 0 0 -40 0 -40 -40 0 -40 0 0 -75 0 -75 40 0 40 0 0
-1575 0 -1575 -40 0 -40 0 0 -235 0 -235 -40 0 -40 0 0 -115 0 -115 -40 0 -40
0 0 -80 0 -80 -40 0 -40 0 0 -80 0 -80 -40 0 -40 0 0 -75 0 -75 -40 0 -40 0 0
-80 0 -80 -35 0 c-34 0 -35 -1 -35 -40 l0 -40 -40 0 -40 0 0 -80 0 -80 -40 0
-40 0 0 -75 0 -75 -40 0 -40 0 0 -40 0 -40 -40 0 -40 0 0 -80 0 -80 -40 0 -40
0 0 -80 0 -80 -35 0 c-33 0 -35 -2 -35 -35 0 -34 -1 -35 -40 -35 l-40 0 0 -40
0 -40 -40 0 -40 0 0 -80 0 -80 -40 0 -40 0 0 -40 0 -40 -40 0 -40 0 0 -75 0
-75 -40 0 -40 0 0 -40 0 -40 -40 0 -40 0 0 -40 c0 -39 -1 -40 -35 -40 l-35 0
0 -80 0 -80 -40 0 -40 0 0 -40 0 -40 -40 0 -40 0 0 -40 0 -40 -40 0 c-39 0
-40 -1 -40 -35 0 -34 -1 -35 -40 -35 l-40 0 0 -40 0 -40 -40 0 -40 0 0 -40 c0
-39 -1 -40 -35 -40 -34 0 -35 -1 -35 -40 l0 -40 -40 0 -40 0 0 -40 0 -40 -40
0 -40 0 0 -40 0 -40 -40 0 -40 0 0 -40 0 -40 -40 0 c-39 0 -40 -1 -40 -35 0
-34 -1 -35 -40 -35 l-40 0 0 -40 0 -40 -40 0 -40 0 0 -40 0 -40 -75 0 -75 0 0
-40 0 -40 -40 0 -40 0 0 -40 0 -40 -80 0 -80 0 0 -40 0 -40 -40 0 -40 0 0 -40
0 -40 -75 0 -75 0 0 -35 c0 -34 -1 -35 -40 -35 l-40 0 0 -40 0 -40 -80 0 -80
0 0 -40 0 -40 -80 0 -80 0 0 -40 0 -40 -75 0 -75 0 0 -40 0 -40 -40 0 -40 0 0
-40 0 -40 -80 0 -80 0 0 -35 c0 -34 -1 -35 -40 -35 l-40 0 0 -40 c0 -39 -1
-40 -35 -40 -34 0 -35 -1 -35 -40 l0 -40 -40 0 -40 0 0 -40 0 -40 -40 0 -40 0
0 -80 0 -80 -40 0 -40 0 0 -75 0 -75 -40 0 -40 0 0 -160 0 -160 -40 0 -40 0
-2 -737 -3 -736 -70 -24 c-641 -220 -1503 -398 -2190 -453 -71 -5 -156 -13
-187 -16 l-58 -5 0 1771 0 1770 40 0 40 0 0 195 0 195 40 0 40 0 0 120 0 120
40 0 40 0 0 80 0 80 40 0 40 0 0 75 0 75 35 0 35 0 0 80 0 80 40 0 40 0 0 80
0 80 40 0 40 0 0 40 0 40 40 0 40 0 0 75 0 75 40 0 40 0 0 40 0 40 40 0 40 0
0 40 0 40 40 0 40 0 0 40 c0 39 1 40 35 40 34 0 35 1 35 40 l0 40 40 0 40 0 0
40 0 40 40 0 c39 0 40 1 40 35 0 34 1 35 40 35 l40 0 0 40 0 40 40 0 40 0 0
40 0 40 40 0 40 0 0 40 c0 39 1 40 35 40 34 0 35 1 35 40 l0 40 40 0 40 0 0
40 0 40 80 0 80 0 0 40 0 40 40 0 c39 0 40 1 40 35 0 34 1 35 40 35 l40 0 0
40 0 40 40 0 40 0 0 40 c0 39 1 40 35 40 34 0 35 1 35 40 l0 40 40 0 40 0 0
40 0 40 80 0 80 0 0 40 0 40 40 0 40 0 0 40 0 40 40 0 c39 0 40 1 40 35 0 33
2 35 35 35 34 0 35 1 35 40 l0 40 40 0 40 0 0 40 0 40 40 0 40 0 0 40 0 40 80
0 80 0 0 40 0 40 40 0 40 0 0 40 0 40 40 0 40 0 0 40 c0 39 1 40 35 40 33 0
35 2 35 35 0 34 1 35 40 35 l40 0 0 40 0 40 40 0 40 0 0 40 0 40 40 0 40 0 0
40 0 40 40 0 40 0 0 40 0 40 40 0 40 0 0 40 c0 39 1 40 35 40 33 0 35 2 35 35
0 34 1 35 40 35 l40 0 0 40 0 40 40 0 40 0 0 40 0 40 40 0 40 0 0 40 0 40 40
0 40 0 0 40 0 40 40 0 40 0 0 40 0 40 40 0 40 0 0 40 c0 39 1 40 35 40 33 0
35 2 35 35 0 34 1 35 40 35 l40 0 0 40 0 40 40 0 40 0 0 40 0 40 40 0 40 0 0
40 0 40 40 0 40 0 0 40 0 40 40 0 40 0 0 80 0 80 35 0 c33 0 35 2 35 35 l0 35
80 0 80 0 0 40 0 40 40 0 40 0 0 40 0 40 40 0 40 0 0 40 0 40 80 0 80 0 0 40
0 40 115 0 115 0 0 -40 0 -40 80 0 80 0 0 -40 0 -40 40 0 40 0 0 -40 c0 -39 1
-40 35 -40 34 0 35 -1 35 -40 l0 -40 40 0 40 0 0 -275 0 -275 -40 0 c-39 0
-40 -1 -40 -35 0 -33 -2 -35 -35 -35 -34 0 -35 -1 -35 -40 l0 -40 -40 0 -40 0
0 -40 0 -40 -40 0 -40 0 0 -40 0 -40 -40 0 -40 0 0 -80 0 -80 -80 0 -80 0 0
-75 0 -75 -35 0 c-34 0 -35 -1 -35 -40 l0 -40 -40 0 -40 0 0 -40 0 -40 -40 0
-40 0 0 -40 0 -40 -40 0 -40 0 0 -40 0 -40 -40 0 -40 0 0 -40 0 -40 -40 0
c-39 0 -40 -1 -40 -35 0 -34 -1 -35 -40 -35 l-40 0 0 -40 c0 -39 -1 -40 -35
-40 -34 0 -35 -1 -35 -40 l0 -40 -40 0 -40 0 0 -40 0 -40 -40 0 -40 0 0 -40 0
-40 -40 0 -40 0 0 -40 0 -40 -40 0 -40 0 0 -40 0 -40 -40 0 c-39 0 -40 -1 -40
-35 0 -33 -2 -35 -35 -35 -34 0 -35 -1 -35 -40 l0 -40 -40 0 -40 0 0 -40 0
-40 -40 0 -40 0 0 -40 0 -40 -40 0 -40 0 0 -80 0 -80 -40 0 -40 0 0 -40 0 -40
-40 0 c-39 0 -40 -1 -40 -35 0 -34 -1 -35 -40 -35 l-40 0 0 -40 c0 -39 -1 -40
-35 -40 -34 0 -35 -1 -35 -40 l0 -40 -40 0 -40 0 0 -80 0 -80 -40 0 -40 0 0
-80 0 -80 -40 0 c-39 0 -40 -1 -40 -35 0 -34 1 -35 40 -35 l40 0 0 -80 0 -80
40 0 40 0 0 -40 0 -40 115 0 115 0 0 40 0 40 40 0 40 0 0 40 0 40 40 0 40 0 0
40 0 40 40 0 c39 0 40 1 40 35 0 34 1 35 40 35 l40 0 0 40 0 40 40 0 40 0 0
40 c0 39 1 40 35 40 34 0 35 1 35 40 l0 40 40 0 40 0 0 40 0 40 40 0 40 0 0
40 0 40 40 0 40 0 0 40 0 40 40 0 c39 0 40 1 40 35 0 34 1 35 40 35 l40 0 0
40 c0 39 1 40 35 40 34 0 35 1 35 40 l0 40 40 0 40 0 0 40 0 40 40 0 40 0 0
40 0 40 40 0 40 0 0 40 0 40 40 0 40 0 0 40 0 40 40 0 c39 0 40 1 40 35 0 34
1 35 40 35 l40 0 0 40 c0 39 1 40 35 40 34 0 35 1 35 40 l0 40 40 0 40 0 0 40
0 40 40 0 40 0 0 40 0 40 40 0 40 0 0 40 0 40 40 0 40 0 0 40 0 40 40 0 c39 0
40 1 40 35 0 33 2 35 35 35 34 0 35 1 35 40 l0 40 40 0 40 0 0 40 0 40 40 0
40 0 0 40 0 40 40 0 40 0 0 40 0 40 40 0 40 0 0 115 0 115 40 0 40 0 0 1375 0
1375 40 0 40 0 0 195 0 195 35 0 c34 0 35 1 35 40 l0 40 40 0 40 0 0 40 0 40
40 0 40 0 0 40 0 40 80 0 80 0 0 40 0 40 75 0 75 0 0 40 0 40 120 0 120 0 0
35 0 35 120 0 120 0 0 40 0 40 115 0 115 0 0 40 0 40 120 0 120 0 0 40 0 40
115 0 115 0 0 40 0 40 120 0 120 0 0 -40z m-9340 -1180 l0 -40 120 0 120 0 0
-40 0 -40 75 0 75 0 0 -35 c0 -34 1 -35 40 -35 l40 0 0 -40 0 -40 80 0 80 0 0
-40 0 -40 40 0 40 0 0 -40 c0 -39 1 -40 35 -40 l35 0 0 -80 0 -80 40 0 40 0 0
40 0 40 40 0 40 0 0 40 0 40 40 0 40 0 0 40 0 40 40 0 40 0 0 40 0 40 40 0 40
0 0 40 0 40 40 0 c39 0 40 1 40 35 l0 35 75 0 75 0 0 40 0 40 120 0 120 0 0
40 0 40 350 0 350 0 0 -40 0 -40 120 0 120 0 0 -40 0 -40 80 0 80 0 0 -35 c0
-33 2 -35 35 -35 34 0 35 -1 35 -40 l0 -40 80 0 80 0 0 -40 0 -40 40 0 40 0 0
-40 0 -40 40 0 40 0 0 -40 0 -40 40 0 40 0 0 -80 0 -80 40 0 c39 0 40 -1 40
-35 0 -33 2 -35 35 -35 l35 0 0 -80 0 -80 40 0 40 0 0 -160 0 -160 40 0 40 0
0 -270 0 -270 -40 0 -40 0 0 -200 0 -200 -40 0 -40 0 0 -75 0 -75 -35 0 -35 0
0 -80 0 -80 -40 0 -40 0 0 -40 0 -40 -40 0 -40 0 0 -40 0 -40 -40 0 -40 0 0
-80 0 -80 -40 0 c-39 0 -40 -1 -40 -35 0 -34 -1 -35 -40 -35 l-40 0 0 -40 0
-40 -40 0 -40 0 0 -80 0 -80 -75 0 -75 0 0 -80 0 -80 -40 0 c-39 0 -40 -1 -40
-35 0 -34 -1 -35 -40 -35 l-40 0 0 -40 0 -40 -40 0 -40 0 0 -40 0 -40 -40 0
-40 0 0 -40 c0 -39 -1 -40 -35 -40 -34 0 -35 -1 -35 -40 l0 -40 -80 0 -80 0 0
-80 0 -80 -80 0 -80 0 0 -35 c0 -34 -1 -35 -40 -35 l-40 0 0 -40 0 -40 -40 0
-40 0 0 -40 c0 -39 -1 -40 -35 -40 -34 0 -35 -1 -35 -40 l0 -40 -80 0 -80 0 0
-40 0 -40 -40 0 -40 0 0 -40 0 -40 -40 0 -40 0 0 -40 0 -40 -75 0 -75 0 0 -35
0 -35 -80 0 -80 0 0 -40 0 -40 -40 0 -40 0 0 -40 0 -40 -155 0 -155 0 0 40 0
40 -80 0 -80 0 0 40 0 40 -80 0 -80 0 0 35 0 35 -75 0 -75 0 0 40 0 40 -40 0
-40 0 0 40 0 40 -40 0 -40 0 0 40 0 40 -40 0 -40 0 0 40 0 40 -40 0 -40 0 0
40 0 40 -80 0 -80 0 0 40 c0 39 -1 40 -35 40 -33 0 -35 2 -35 35 0 34 -1 35
-40 35 l-40 0 0 40 0 40 -40 0 -40 0 0 40 0 40 -40 0 -40 0 0 40 0 40 -40 0
-40 0 0 40 0 40 -40 0 -40 0 0 40 c0 39 -1 40 -35 40 -34 0 -35 1 -35 40 l0
40 -40 0 c-39 0 -40 1 -40 35 0 34 -1 35 -40 35 l-40 0 0 40 0 40 -40 0 -40 0
0 40 0 40 -40 0 -40 0 0 40 0 40 -40 0 -40 0 0 40 0 40 -40 0 -40 0 0 75 0 75
-35 0 c-34 0 -35 1 -35 40 l0 40 -40 0 -40 0 0 40 0 40 -40 0 -40 0 0 80 0 80
-40 0 -40 0 0 80 0 80 -40 0 -40 0 0 75 0 75 -40 0 -40 0 0 120 0 120 -35 0
-35 0 0 430 0 430 35 0 35 0 0 120 0 120 40 0 40 0 0 75 0 75 40 0 40 0 0 40
0 40 40 0 40 0 0 80 0 80 40 0 40 0 0 40 0 40 75 0 75 0 0 40 0 40 40 0 40 0
0 40 0 40 40 0 c39 0 40 1 40 35 l0 35 80 0 80 0 0 40 0 40 115 0 115 0 0 40
0 40 355 0 355 0 0 -40z"/>
<path d="M9790 18175 l0 -35 -195 0 -195 0 0 -40 0 -40 -40 0 -40 0 0 -40 0
-40 -75 0 -75 0 0 -80 0 -80 -40 0 -40 0 0 -40 0 -40 -40 0 -40 0 0 -115 0
-115 -40 0 -40 0 0 -235 0 -235 40 0 40 0 0 -80 0 -80 40 0 40 0 0 -80 0 -80
40 0 40 0 0 -40 0 -40 40 0 c39 0 40 -1 40 -35 0 -33 2 -35 35 -35 34 0 35 -1
35 -40 l0 -40 40 0 40 0 0 -40 0 -40 80 0 80 0 0 -40 0 -40 40 0 40 0 0 -430
0 -430 155 0 155 0 0 40 0 40 40 0 40 0 0 390 0 390 40 0 40 0 0 40 0 40 115
0 115 0 0 40 0 40 40 0 40 0 0 40 0 40 40 0 c39 0 40 1 40 35 0 34 1 35 40 35
l40 0 0 40 0 40 40 0 40 0 0 80 0 80 40 0 40 0 0 155 0 155 35 0 c34 0 35 1
35 40 0 39 -1 40 -35 40 l-35 0 0 200 0 200 -40 0 -40 0 0 75 0 75 -40 0 -40
0 0 40 0 40 -40 0 -40 0 0 40 0 40 -40 0 -40 0 0 40 0 40 -75 0 -75 0 0 40 0
40 -160 0 -160 0 0 35 0 35 -80 0 -80 0 0 -35z m160 -395 l0 -40 80 0 80 0 0
-35 c0 -34 1 -35 40 -35 l40 0 0 -40 0 -40 40 0 40 0 0 -40 c0 -39 1 -40 35
-40 l35 0 0 -235 0 -235 -35 0 c-34 0 -35 -1 -35 -40 l0 -40 -40 0 -40 0 0
-40 0 -40 -80 0 -80 0 0 -40 0 -40 -195 0 -195 0 0 40 0 40 -40 0 -40 0 0 40
0 40 -40 0 -40 0 0 40 0 40 -40 0 -40 0 0 75 0 75 -40 0 -40 0 0 80 0 80 40 0
40 0 0 120 0 120 40 0 40 0 0 40 0 40 80 0 80 0 0 35 0 35 75 0 75 0 0 40 0
40 80 0 80 0 0 -40z"/>
<path d="M8700 18100 l0 -40 -40 0 -40 0 0 -80 0 -80 -40 0 -40 0 0 -80 0 -80
-40 0 -40 0 0 -155 0 -155 40 0 40 0 0 120 0 120 40 0 40 0 0 115 0 115 40 0
40 0 0 40 c0 39 1 40 35 40 l35 0 0 80 0 80 -35 0 c-34 0 -35 -1 -35 -40z"/>
<path d="M11050 17900 l0 -80 40 0 40 0 0 -155 0 -155 40 0 40 0 0 -40 0 -40
40 0 40 0 0 80 0 80 -40 0 -40 0 0 115 0 115 -40 0 -40 0 0 80 0 80 -40 0 -40
0 0 -80z"/>
<path d="M13480 17080 l0 -40 40 0 40 0 0 40 0 40 -40 0 -40 0 0 -40z"/>
<path d="M14970 15740 l0 -40 40 0 40 0 0 40 0 40 -40 0 -40 0 0 -40z"/>
<path d="M8460 13935 l0 -35 -80 0 -80 0 0 -40 c0 -39 -1 -40 -35 -40 -34 0
-35 -1 -35 -40 l0 -40 -40 0 -40 0 0 -235 0 -235 40 0 40 0 0 -80 0 -80 75 0
75 0 0 -40 0 -40 195 0 195 0 0 40 0 40 80 0 80 0 0 40 0 40 40 0 40 0 0 80 0
80 40 0 40 0 0 155 0 155 -40 0 -40 0 0 40 0 40 -40 0 -40 0 0 40 0 40 -40 0
-40 0 0 40 0 40 -75 0 -75 0 0 35 0 35 -120 0 -120 0 0 -35z"/>
<path d="M11050 13935 l0 -35 -120 0 -120 0 0 -40 c0 -39 -1 -40 -35 -40 l-35
0 0 -80 0 -80 -40 0 -40 0 0 -195 0 -195 40 0 40 0 0 -80 0 -80 75 0 75 0 0
-40 0 -40 235 0 235 0 0 40 0 40 40 0 40 0 0 40 0 40 40 0 40 0 0 80 0 80 40
0 40 0 0 155 0 155 -40 0 -40 0 0 40 0 40 -40 0 -40 0 0 40 0 40 -40 0 -40 0
0 40 0 40 -75 0 -75 0 0 35 0 35 -80 0 -80 0 0 -35z"/>
<path d="M2650 13780 l0 -40 40 0 40 0 0 40 0 40 -40 0 -40 0 0 -40z"/>
</g>
</svg>
