<?xml version="1.0" encoding="UTF-8"?>
<svg id="Layer_1" data-name="Layer 1" xmlns="http://www.w3.org/2000/svg" viewBox="0 0 145 164.85">
  <defs>
    <style>
      .cls-1, .cls-2, .cls-3, .cls-4, .cls-5, .cls-6, .cls-7, .cls-8, .cls-9, .cls-10, .cls-11, .cls-12, .cls-13, .cls-14, .cls-15, .cls-16, .cls-17, .cls-18, .cls-19, .cls-20, .cls-21, .cls-22, .cls-23 {
        fill-rule: evenodd;
      }

      .cls-1, .cls-2, .cls-24, .cls-6, .cls-7, .cls-8, .cls-11, .cls-25, .cls-14, .cls-17, .cls-19, .cls-26, .cls-21, .cls-22, .cls-27 {
        stroke-width: 0px;
      }

      .cls-1, .cls-26 {
        fill: #7ac55e;
      }

      .cls-2 {
        fill: #0d3c4a;
      }

      .cls-3 {
        fill: #346b7e;
        stroke: #366c7f;
      }

      .cls-3, .cls-4, .cls-5, .cls-28, .cls-29, .cls-9, .cls-30, .cls-10, .cls-12, .cls-13, .cls-15, .cls-16, .cls-18, .cls-20, .cls-23 {
        stroke-miterlimit: 10;
      }

      .cls-4 {
        fill: #81c45e;
        stroke: #81c45e;
        stroke-width: .5px;
      }

      .cls-5 {
        fill: #0089b4;
        stroke: #0389b4;
      }

      .cls-24 {
        fill: #000;
      }

      .cls-6, .cls-30, .cls-25 {
        fill: #79c45d;
      }

      .cls-28 {
        fill: #fff;
        stroke: #fff;
        stroke-width: .75px;
      }

      .cls-31, .cls-22 {
        isolation: isolate;
      }

      .cls-29, .cls-8, .cls-13 {
        fill: #49eafe;
      }

      .cls-29, .cls-13 {
        stroke: #49eafe;
      }

      .cls-7 {
        fill: #78c757;
      }

      .cls-9 {
        stroke: #05b1de;
      }

      .cls-9, .cls-27 {
        fill: #03b1df;
      }

      .cls-30, .cls-12 {
        stroke: #7ac35e;
      }

      .cls-10 {
        fill: #0086b4;
        stroke: #0286b4;
      }

      .cls-11, .cls-16, .cls-23 {
        fill: #134d62;
      }

      .cls-12 {
        fill: #7ac45d;
      }

      .cls-14 {
        fill: #3aeaff;
      }

      .cls-15 {
        stroke: #01b1de;
      }

      .cls-15, .cls-17 {
        fill: #00b1df;
      }

      .cls-16 {
        stroke: #154d62;
      }

      .cls-18 {
        stroke: #0f3a4c;
      }

      .cls-18, .cls-21 {
        fill: #0f3a4c;
      }

      .cls-19 {
        fill: #0e3b4a;
      }

      .cls-20 {
        fill: #81c65c;
        stroke: #81c55d;
      }

      .cls-22 {
        fill: #fdfefd;
        opacity: .95;
      }

      .cls-23 {
        stroke: #174d62;
      }
    </style>
  </defs>
  <g>
    <path class="cls-25" d="M145,134.26v2.7H0v-2.7h145Z"/>
    <g>
      <path class="cls-24" d="M7.1,128.36L0,99.46h3.8l3.3,14.6c.8,3.6,1.6,7.2,2.1,10h.1c.5-2.9,1.3-6.3,2.3-10l3.7-14.6h3.8l3.4,14.6c.8,3.4,1.5,6.9,2,9.9h.1c.6-3.2,1.4-6.4,2.2-10l3.7-14.6h3.7l-7.9,28.9h-3.8l-3.5-15c-.9-3.7-1.5-6.5-1.8-9.4h-.1c-.5,2.9-1.1,5.7-2.2,9.4l-4,15h-3.8v.1Z"/>
      <path class="cls-24" d="M52.2,114.86h-10.9v10.4h12.1v3.1h-15.7v-28.9h15.1v3.1h-11.5v9.1h10.9v3.2h0Z"/>
      <path class="cls-24" d="M58.1,99.56h3.6v25.7h12v3.1h-15.6v-28.8Z"/>
      <path class="cls-24" d="M77.7,99.56h3.6v25.7h12v3.1h-15.6v-28.8Z"/>
      <path class="cls-24" d="M97.3,99.56h15.1v3.1h-11.5v9.6h10.6v3.1h-10.6v13.1h-3.6v-28.9Z"/>
      <path class="cls-24" d="M121.2,99.56v28.9h-3.6v-28.9h3.6Z"/>
      <path class="cls-24" d="M132.8,102.66h-8.5v-3.2h20.7v3.2h-8.6v25.7h-3.7v-25.7h.1Z"/>
    </g>
  </g>
  <path class="cls-22" d="M57.85,47.8c-.3-1.2.7-2.4,1.6-2.6,2.9-.6,3.6,4,.9,4.4-.6.1-1.2-.1-1.7-.4-.3-.2-.6-.8-.8-1.4ZM82.65,47.7c-.4-3,3.8-3.4,4.2-.5.3,2.7-3.8,3.5-4.2.5ZM92.15,44.2c.6-.8,2.6-2.3,3.9-2.8,1.5-.5,3.2-.2,4.7-.2.6,0,1.1-.1,1.7-.1l-.1.1c-.7.5-4.2,1.6-4.8,1.8-.8.2-1.8.4-2.8.6s-1.7.4-2.6.6h0ZM41.85,41c.3,0,1.9.2,3.1.2,2.3-.1,3.6-.3,5.5,1.2.4.3,1.6,1.3,1.8,1.7l-2.8-.5c-2.7-.5-5.5-1.5-7.6-2.6h0ZM103.65,39c-.3.2-.8.3-1.1.4-1.4.2-2.9.1-4.3.1h-.6l.3-.6c.4-1.6,1.7-4.2,3.2-5.2,1.9-1.4,4.2-1.6,6.7-1,.2,2.2-2.6,6.3-4.2,6.3ZM46.65,38.3c.2.3.5.6.5,1.1h-.4c-1.8-.1-3.4.3-5.2-.2-.8-.2-1.3-.5-1.8-.9-.3-.3-1.1-1.1-1.3-1.5-.5-.3-1.6-3.3-1.5-4.2,1.6-.9,4.7-.4,6.5.7,1.2.9,2.6,3.6,3.2,5h0ZM67.65,27c.8-1.6,2.2-2.8,4.6-2.8,2.1,0,4,1.4,4.6,2.9,2.1,3.9-.7,7.7-4.4,7.9-2.2.1-3.8-1.1-4.5-2.4-1.1-1.9-1-3.4-.3-5.6ZM91.05,41.7c-.3.3-.8.6-1.1.8-.2.2-.4.3-.6.5s-.3.4-.6.5c-.1.1.2.1-.2.1-.3-.5-1.1-2.7-1.3-3.3-1.1-3.7,0-8.2,2.2-11,1.5-1.9,2.7-3,5.1-4.2,1.5-.7,5.3-2.2,7-2.4-.1.9-.6,2-.8,2.9-.2,1-.5,2-.7,3-.6,3.3-1.8,6.5-3.8,9-.3.3-.6.7-.8,1.1-.7.6-3.3,2.6-4.4,3h0ZM56.25,43.4c-.3,0-.8-.5-1.1-.7-.4-.3-.7-.5-1.1-.7l-1.2-.7c-.4-.2-.7-.5-1.1-.7-2.2-1.4-3.9-3.8-5.1-6.2-1.8-3.8-1.6-5.3-2.6-8.8-.2-.8-.8-2.2-.9-2.9,1.6.1,5.6,1.7,6.9,2.3,5.6,2.7,9.1,8.8,7.5,15.1-.1.6-.3,1.2-.6,1.7,0,.3-.5,1.4-.7,1.6ZM71.95,41.2c-.8,1.1-1.6,2.1-2.4,3.2l-2.5,3.1c-.2-.2-.3-.3-.3-.7-.3-.2-1.2-2.7-1.5-3.3-1.3-2.7-3.6-7.2-4.5-9.6-1-2.8-1-5.1-.2-8,.7-2.3,1.8-4.7,3-6.3-.7,1.3-1.3,5.4-1.3,7.1-.1,4,1,5.7,3.5,8.1,3,2.9,5.5,1.9,6.5,3.2.9,1.1.5,2.4-.3,3.2h0ZM88.15,25.6c-.1.2-.7,1-.9,1.1l-.3-.8c-.2-.2-1.1-1.9-1.4-2.3-1.4-2.4-2.9-4.7-2.9-7.8,0-2.2.8-3.8,1.8-5.3.5-.9,2.5-3.7,3.1-4,.5.3,1.1,1.4,1.6,2,.4.7.9,1.5,1.2,2.2,1.7,3.8,2.7,7.1.9,11-.5,1.3-2.1,3.5-3.1,3.9ZM57.85,25.9l-.1.2-.2.5c-.3-.1-.2-.1-.5-.3-.1-.1-.2-.2-.3-.4-.7-.3-2.8-3.3-3.2-3.9-1.9-3.4-1-7.8.7-11.2.5-1.1,2-3.9,2.6-4.4.8.2,2.7,3.1,3.3,3.9,3.6,5.8,1.3,10.1-1.9,15l-.4.6h0ZM77.35,16.2c0,1.6-2,3.6-3.8,4.1-2.5.7-4.6-.8-5.5-2.1-1.8-2.7-.9-5,.7-7.3l2.7-3.2c.1-.5.6-1.1,1-1.1.2.2.4.6.7.9l2.1,2.6c.3.3.3.2.4.4q.2.2.4.5c.8.7,1.4,2.5,1.3,2.4.2.7.4,1.9.2,2.5l-.2.3h0ZM85.85,68.2c4.5-.8,7.6-.5,12.8-2,1.3-.4,2.5-.8,3.8-1.2,2.5-.8,4.7-2,6.9-3.1,1.1-1.6,2.4-6.1,2.9-8.3.8-3.3,1-6.7.9-10.2-.1-7.1-1.6-12.6-4.5-18-.7-1.2-1.4-2.4-2.1-3.5s-1.6-2.3-2.3-3.3c-.9-1.1-3-3.4-4-4.3l-1.9-1.7c-1.3-1.1-4.9-3.7-6.2-4.3-2.2-1.1-.8-.5-2.7-2.9-.3-.4-1-1-1.7-1.1-1.1-.2-1.4.5-1.9.9-1.4-.1-5.7-2.4-13.7-2.4-3.6,0-8.6.8-12.1,2-.5.2-1.1.5-1.4.6-.3-.3-.3-.6-.7-.8-1-.6-2.2,0-2.9.9-1.5,2-.3,1.7-2.7,2.9-1.2.6-2.4,1.5-3.4,2.2l-3.1,2.5-2.2,2.1c-1.3,1.2-1.2,1.2-2,2.1-2,2-4.3,5.6-5.7,8.3-4.4,7.9-5.7,18.9-3.4,28.1.5,2.1,1.9,6.4,2.9,8.2h0c.3.2.7.4,1,.6,5.2,2.8,8.3,3.7,14.2,5,3.9.8,10.6.4,13.9,2.7l1.2.9c.2,0,.1.2.2-.1-4-5.5-12.9-4.4-19.9-6.6-4.9-1.5-8.7-4.5-10.6-9.3-.5-1.3-1.3-3.5-1.4-5.1-.4-.8-.4-2.1-.5-3.1.2.1.9,1.1,1.7,1.9.7.6,1.2,1.1,2,1.6,1.2,1,2.8,2,4.3,2.9,1.4.9,7.8,4.6,9.3,5.2.2.3,3.6,2,4.4,2.4.1.1.2.2.3.2.3.2.3.1.4,0-.5-.2-1.4-.8-1.9-1.2-.3-.2-.6-.3-1-.6-.2-.2-.7-.5-.9-.6-1-.3-3.6-2.1-4.7-2.8-1.6-1-3-2-4.6-3-1.6-1.1-2.8-2-4.3-3.2-.8-.6-3.5-3-3.8-3.8.1,0,2,.8,3,1.1,1.1.3,2,.7,3.1,1.1,2.9,1,3,.9,6,2.3,2.8,1.3,5.4,2.9,7.8,4.7.4.3,2,1.7,2.3,1.9h.3c-.3-.5-.8-.7-1.1-1.1-.8-.8-2.8-2.3-3.7-2.9-6-4.1-10.1-5.5-16.9-7.2-.4-.1-1.3-.3-1.4-.7.7-.5,4.9-.3,6-.2,6.4.4,12.6,2.6,17.5,6.4l3.2,3.1c1,1.1,2.3,3.4,3,4.8.2.4,1.9,4.2,1.8,4.4,0,0,.2.2.1-.4l-.2-1.5c-.3-2.4-.4-3.9.2-6.3.8-3.1,2.9-6.5,5.2-8.8l2.1-2.6c.7-.9,1.3-1.6,1.8-2.9.2-.5.4-1.2.5-1.8.1-1-.2-1.5-.2-2.2.2-.2,1.8-.7,3.1-1.6.3-.2.6-.5.9-.7,3.7-3.1,3.9-7.6,2.9-12.2-.1-.4-.2-.8-.3-1.2-.1-.2-.1-.4-.2-.7-.1-.2-.1-.4,0-.6.5.6,2.3,4.5,2.7,5.5,2.1,6.2-1.2,10.6-3.5,15.7l-1,2c-.1.1-.1.2-.2.3l-.3.3c0,.9-3.2,5.5-3.8,6.2-4.6,6.3-6.3,11.1-4.9,19.2.4,2.2.6,2.3,1,3.9l.1-.8-.1-.1c-.2-.4-.1-1.1-.1-1.5,0-1.6.1-3.3.3-4.8.3-2.2.7-3.7,1.2-5.7.3-1.6,1.6-3.4,2.3-4.6l2.1-3.1c.2-.4.3-.8.6-1.1.7.3,1.6,4.3,1.7,5.4.2,2.9-.5,5.2-.4,6.5.3-.3.7-1.7.9-2.2,1-2.2,2-4.2,3.4-6.1,1-1.3,1.9-2.2,3.1-3.3,1.1-.9,2.3-1.8,3.7-2.6,3.9-2.3,9.7-4.2,14.5-4.4,1.1-.1,5.3-.2,5.9.2-.3.6-2.5,1-3.4,1.1-5.5,1.2-10.7,3.8-15.2,7-1.1.7-4.4,3.4-4.7,4.1.1.2,0,.1.1,0,.7-.6,1.5-1.3,2.3-1.9,6.7-5.2,11.2-6.4,18.6-9.2.4-.2,1.2-.5,1.6-.6-.1.6-1.5,1.9-1.9,2.2l-.5.5c-.3.3-1.2,1.2-1.7,1.5l-1.6,1.2c-.6.4-1.1.8-1.7,1.2l-7,4.6c-1.6,1-2,1.3-3.7,2.1-.6.3-1.3.8-1.9,1.2-.3.2-.6.4-.9.7-.3.2-.7.5-.9.6l3-1.6c1.1-.6,2.1-1.1,3.1-1.6,5-2.9,12.6-6.6,16.1-11.1.2-.2.4-.5.6-.6l-.4,3.3c0,1-1.1,4.3-1.6,5.2-2.2,5-5.3,7.5-10.7,9.3"/>
  <path class="cls-16" d="M65.45,63.6c.2.2-.2.3.2.1,0-.3,0-.2.1-.5.6-.1,1.6-.2,2.1-.3.7-.2.7-.3.7-1.1.2-6.4,3.5-9.2,7.2-13.9l2.5-3.2h0l.6-.5c.1-.1-.1-.1.2-.1l.2-.4c.1-.1.1-.2.2-.3l1-2c2.2-5.1,5.6-9.5,3.5-15.7-.3-1-2.2-4.9-2.7-5.5.1.3.1.7.2,1l.1.5c.1.4.1.6.2,1,1,4.6.8,9-2.9,12.2-.3.2-.6.5-.9.7-1.2.9-2.8,1.4-3.1,1.6,0,.8.2,1.3.2,2.2-.1.6-.3,1.2-.5,1.8-.5,1.3-1.1,2-1.8,2.9l-2.1,2.6c-2.2,2.3-4.4,5.7-5.2,8.8-.6,2.4-.5,3.9-.2,6.3l.2,1.5c.2.5.1.3,0,.3h0Z"/>
  <path class="cls-6" d="M88.65,43.5c-.2-.1-.1.2-.1-.3l.6-1.9c.9-2.9,1.8-5.6,3.2-8.3.7-1.3,2.8-4.4,3.7-4.9l-1.6,3.2c-.5,1.1-.9,2.1-1.3,3.3-.6,1.6-2,5.6-2.2,7.2,1.1-.4,3.8-2.4,4.3-3.1.3-.3.6-.7.8-1.1,2-2.5,3.2-5.7,3.8-9,.2-1,.4-2,.7-3,.2-.9.7-2,.8-2.9-1.7.2-5.6,1.6-7,2.4-2.4,1.2-3.7,2.3-5.1,4.2-2.2,2.9-3.2,7.3-2.2,11,.2.7,1,2.9,1.3,3.3.5,0,.2,0,.3-.1h0Z"/>
  <path class="cls-6" d="M54.05,41.9c-.1-.4-.9-2.6-1.2-3.8-.7-2.3-1.7-5-2.7-7.2-.6-1.2-1.6-2.8-1.7-3.1.8.6,2,2.2,2.6,3.2.7,1.2,1.4,2.4,2,3.8.5,1.1,3.1,7.7,3,8.6.2-.2.7-1.3.8-1.6.2-.5.4-1.1.6-1.7,1.5-6.3-2-12.4-7.5-15.1-1.3-.6-5.4-2.3-6.9-2.3.1.7.7,2.1.9,2.9,1,3.4.7,4.9,2.6,8.8,1.2,2.5,2.9,4.9,5.1,6.2.4.3.7.5,1.1.7l1.3.6h0Z"/>
  <path class="cls-9" d="M43.05,72.7c.1-.2-.1-.1.2-.1.4,0,2.1.9,2.6,1.1,5.7,2.5,9.7,3.2,15.9,4,2.2.3,5.1.7,7.3.7.1-.1.1,0,.1-.2-.1-.7-1.1-3.8-1.5-4.3-9.7-.5-17.3-2.3-25.4-6.8-1.6-.9-4.3-2.5-5.6-3.8-.2-.2-.5-.5-.3-.9-.3-.2-.7-.3-1-.6.4,1.5,2.6,4.8,3.4,5.9l4.3,5h0Z"/>
  <path class="cls-6" d="M86.95,25.9c-.2-1,0-2.5,0-3.6,0-1.2,0-2.5-.1-3.7,0-1.2-.1-6.1.3-6.9,0,.1.4,2.9.5,3.4.2,1.1.4,2.2.6,3.3.2,1.9.4,5.7-.2,7.3,1-.5,2.6-2.6,3.2-3.8,1.8-3.9.8-7.3-.9-11-.3-.7-.8-1.6-1.2-2.2-.4-.6-1-1.7-1.6-2-.7.3-2.6,3.1-3.1,4-1,1.6-1.8,3.1-1.8,5.3,0,3,1.5,5.4,2.9,7.8.3.3,1.1,1.8,1.4,2.1h0Z"/>
  <path class="cls-10" d="M75.75,78.3q-.1.1-.1.2v.1l-.6,1.9c-.2.6-.6,1.6-.7,2.2-.1.5,0,.4,1.1.4l4.6-.1c2-.1,4-.4,6-.4.9-.3,1.6-.4,2.5-.8.8-.3,1.5-.7,2.3-1,1.5-.7,2.9-1.5,4.3-2.4s6.8-5.3,7.1-6.2c-.9.1-4.6,1.9-5.8,2.4-3.7,1.5-5.9,1.9-9.7,2.5-1.1.2-2.3.5-3.5.6-3.3.4-4.2.5-7.5.6h0Z"/>
  <path class="cls-5" d="M58.65,82.6c1.6.1,11.1.8,11.9.4v-.5c-.2-.3-.6-1.6-.7-2.2-.1-.4-.2-.7-.3-1.1-.1-.2-.1-.3-.2-.6l-.2-.5c0,.3,0,.1-.1.2-2.2.1-5.1-.4-7.3-.7-6.1-.9-10.2-1.6-15.8-4.1-.5-.2-2.2-1.1-2.6-1.1-.3,0-.1-.1-.2.1.4.6,1.1,1.3,1.6,1.7,1.6,1.4,1.6,1.5,3.5,2.9,2.3,1.6,5.6,3.5,8.3,4.5.6.5,1.4.7,2.1,1Z"/>
  <path class="cls-13" d="M67.95,74c-.2-1.2-.9-2.2-1.5-3-.2.2,0,.1-.2.1l-1.2-.9c-3.4-2.4-10.1-1.9-14.1-2.7-5.9-1.2-9.1-2.2-14.3-5-.2.4.1.7.3.9,1.2,1.3,4,3,5.6,3.8,8,4.4,15.6,6.3,25.4,6.8Z"/>
  <path class="cls-11" d="M66.75,46.8c.1-.4-.1-.7.1-1.1.6-1.5,3.4-3.7,4.7-4.4.2-.1.1-.2.4-.1h.1c.7-.7,1.1-2.1.3-3.1-1-1.2-3.4-.3-6.5-3.2-2.5-2.4-3.6-4.1-3.5-8.1,0-1.7.7-5.8,1.3-7.1-1.1,1.6-2.3,3.9-3,6.3-.9,2.9-.9,5.2.2,8,.9,2.4,3.2,6.8,4.5,9.6.2.5,1.1,3,1.4,3.2h0Z"/>
  <path class="cls-6" d="M86.95,60.5c-.4.2-1.7,3.8-1.9,4,6.5-1.8,13.6-1.7,19.1-5.8.4-.3,1-.7,1.4-1.1q.3-.3.7-.6c.2-.2.4-.4.6-.6l1.2-1.4c.7-.9,1.9-2.8,2.4-3.8.3-.7.3-.9.4-.7l.9-4.7c-.2.1-.9,1.6-1.2,2-3.5,4.5-10.5,4.3-15.6,7.2-1,.6-4.5,3.3-5.6,3.9l-1.7,1-.7.6Z"/>
  <path class="cls-12" d="M52.15,58.7c-.3-.6-2.8-2-3.4-2.4-1.2-.8-2.1-1.5-3.3-2.3-1.1-.8-2.2-1.5-3.3-2.3l-2.9-2.3c-.2-.2-.1,0-.2-.2.6.2,1,.5,1.6.7l4.5,2.2c1.6.8,4.1,2.4,5.6,3.4,1,.6,1.7,1.2,2.7,1.8s1.9,1.1,2.8,1.8c.7.5,4.7,3.5,5.3,3.7-.2-.6-1.6-2.6-2-2.9l-1.4-1.4c-.2-.2-.4-.5-.7-.7-.3-.3-.6-.4-.7-.8-.2-.1-1.8-1.5-2.3-1.9-2.3-1.8-5-3.4-7.8-4.7-2.9-1.4-3-1.3-6-2.3-1.1-.4-2-.8-3.1-1.1-1-.3-2.9-1.1-3-1.1.3.8,3,3.2,3.8,3.8,1.6,1.2,2.7,2.1,4.3,3.2,1.5,1,2.9,2,4.6,3,1.2.7,3.8,2.4,4.9,2.8h0Z"/>
  <path class="cls-3" d="M67.65,27c-.1.5,0,.6,0,.6l.1.5c-.1,1.3.2,2,1,3,.7.8,1.9,1.7,3.5,1.7,1.7.1,2.9-.8,3.5-1.7,1.3-1.9.8-3.7,1.1-4-.6-1.5-2.5-2.9-4.6-2.9-2.4,0-3.8,1.2-4.6,2.8h0Z"/>
  <path class="cls-25" d="M56.25,23.6c-.4-4.8.2-4.9.7-8.8.1-1,.2-1.9.3-2.9.7.7.5,5.7.5,7-.1,1.9-.2,3.6-.1,5.5,0,.5.2,1.4.1,1.8l.1-.2h0v-.2l.3-.4c3.2-5,5.5-9.2,1.9-15-.5-.8-2.4-3.7-3.3-3.9-.6.5-2.1,3.3-2.6,4.4-1.7,3.4-2.5,7.7-.7,11.2.4.7,2.5,3.6,3.2,3.9h0l-.4-2.4M58.25,14.4h0Z"/>
  <g>
    <path class="cls-29" d="M107.65,63.9c.3-.2.4-.2.8-.2l.8-1.8c-2.3,1.2-4.4,2.3-7,3.1-1.3.4-2.5.8-3.8,1.2-5.2,1.5-8.3,1.2-12.8,2-1.8.3-6.2,1-7.2,2.8M78.45,71.1c-.4.6-1.2,1.9-1.4,2.9l.1.1h.1l4.3-.5c3.8-.4,9.2-1.5,12.6-2.7,4.8-1.7,6.4-2.5,10.4-4.9l3.1-2"/>
    <path class="cls-29" d="M77.25,73.9s.1.1,0,0h0Z"/>
  </g>
  <path class="cls-15" d="M108.65,63.6c-.4,0-.5.1-.8.2h0l-3.1,2c-4.1,2.4-5.6,3.2-10.4,4.9-3.4,1.2-8.8,2.3-12.6,2.7l-4.3.5h-.1s-.1,0,0,0l-.1-.1c-.5.7-.9,2.4-1.2,3.3-.1.4-.4.8-.3,1.2h0c3.3-.1,4.2-.2,7.4-.6,1.1-.1,2.3-.4,3.4-.6,3.7-.6,6-1,9.6-2.5,1.2-.5,4.9-2.3,5.8-2.4.8-.7,1.6-1.6,2.4-2.6.4-.5.7-.9,1.1-1.4s.7-1,1.1-1.4h0c.6-.8,1.7-2.1,2.1-3.2Z"/>
  <path class="cls-30" d="M56.55,61.1c-.9-.2-5.3-2-5.4-2.3-1.6-.7-7.9-4.4-9.3-5.2-1.5-.9-3-2-4.3-2.9-.7-.6-1.3-1-2-1.6-.8-.7-1.5-1.8-1.7-1.9.1,1,.1,2.3.5,3.1.8,1.1,1.4,3.2,2.7,4.8l1.2,1.3c1.2,1.1,1.4,1.3,2.7,2.3,2.9,2.1,7.3,3.4,11,4.1,2.3.4,3.9.6,6.3,1.1.7.2,1.3.4,2,.6-.2-.2-1.1-1-1.4-1.1l-.1-.1v-.1l-.2-.2q-.2-.1-.3-.2c-.2-.2-.4-.3-.6-.4l-1.4-.9M44.65,56.1h0Z"/>
  <path class="cls-8" d="M72.35,6.7l2.7,3.5s.9.8,1.7,2.2c.8,1.3.7,3.2.7,3.2,0,0-.1.6-.2,1.1l-.3-2.9-.8-1.8-1.1-1.2-1.1-1.4-1.4-1.6-.2-1.1Z"/>
  <path class="cls-19" d="M77.25,26.8c-.3.4.3,2.3-1.2,4.3-.7,1-2,1.9-3.8,1.8-1.8-.1-3-1-3.8-1.9-.9-1.1-1.1-2.4-1.1-3.8v-.3c-.1-.3.1-.1-.1-.3-.8,2.4-.9,4,.3,6.1.8,1.4,2.5,2.7,4.9,2.6,4-.1,7.1-4.3,4.8-8.5h0Z"/>
  <path class="cls-15" d="M72.05,73.3c.3-.2.6-.1,1,0,.2,0,.3,0,.5.1.3,0,.3.1.5-.1.1-2.1,1-4,.9-6.4,0-1.6-.3-5.4-1.5-5.8-.5,2-1,3.5-1.2,5.7-.2,1.6-.3,3.2-.3,4.8,0,.4-.1,1.1.1,1.5v.2h0Z"/>
  <path class="cls-18" d="M88.55,43.5c.2-.1.3-.3.6-.5.2-.2.4-.3.6-.5.3-.2.9-.6,1.1-.8.2-1.6,1.6-5.6,2.2-7.2.4-1.1.9-2.2,1.3-3.3l1.6-3.2c-.9.5-3,3.6-3.7,4.9-1.4,2.7-2.3,5.4-3.2,8.3l-.6,1.9c0,.5-.1.2.1.4h0Z"/>
  <path class="cls-18" d="M54.05,41.9c.4.2.7.5,1.1.7.2.2.7.7,1.1.7.1-.9-2.5-7.4-3-8.6-.6-1.4-1.3-2.6-2-3.8-.6-.9-1.8-2.5-2.6-3.2.1.3,1.1,1.9,1.7,3.1,1,2.2,2,4.9,2.7,7.2.1,1.4.9,3.5,1,3.9Z"/>
  <path class="cls-18" d="M86.95,25.9l.3.8c.2-.1.8-.8.9-1.1.6-1.6.4-5.4.2-7.3-.2-1.1-.4-2.2-.6-3.3-.1-.5-.4-3.3-.5-3.4-.4.7-.4,5.7-.3,6.9,0,1.2.1,2.5.1,3.7-.1,1.1-.3,2.7-.1,3.7Z"/>
  <path class="cls-18" d="M56.25,23.6l.5,2.4c.1.2.2.2.3.4.2.2.1.2.5.3l.2-.5c.1-.4-.1-1.3-.1-1.8-.1-2,.1-3.6.1-5.5.1-1.3.2-6.3-.5-7-.1,1-.1,1.9-.3,2.9-.5,3.9-1,4-.7,8.8h0Z"/>
  <path class="cls-16" d="M74.25,82.6c-.3.3-.7,1.7-.6,2.2,2.6.3,8.2-.8,11-1.7.6-.2,1-.2,1.3-.7-2,.1-4,.3-6,.4l-4.6.1c-1.1.2-1.2.3-1.1-.3h0Z"/>
  <path class="cls-23" d="M70.55,82.4v.5c-.8.4-10.4-.3-11.9-.4.2.2.4.2.7.3s.4.1.7.2l4.5,1.2c1.2.2,5.5.8,6.7.6.1-.5-.6-2.2-.7-2.4h0Z"/>
  <path class="cls-6" d="M57.85,47.8c.2.5.4,1.2.8,1.4.5.3,1.1.5,1.7.4,2.7-.4,2-5-.9-4.4-.8.2-1.9,1.4-1.6,2.6Z"/>
  <path class="cls-6" d="M82.65,47.7c.4,3.1,4.6,2.2,4.2-.5-.4-2.9-4.7-2.6-4.2.5Z"/>
  <path class="cls-26" d="M46.15,39.1c-1-.5-6.9-5.3-6.9-5.4.9-.1,2.8.9,3.4,1.3,1.7,1,2.1,1.7,2.7,2.2.4.4.7.8,1.2,1.1-.5-1.4-2-4.2-3.2-4.9-1.7-1.1-4.8-1.6-6.5-.7-.1.9,1,3.9,1.5,4.2.2.5,1,1.2,1.3,1.5.5.4,1,.7,1.8.9,1.8.5,3.4.1,5.2.2l-.5-.4Z"/>
  <path class="cls-17" d="M41.85,41c2.2,1.1,4.9,2.2,7.5,2.5l2.8.6c-.2-.4-1.4-1.3-1.8-1.7-1.9-1.6-3.2-1.3-5.5-1.2-1.2,0-2.7-.3-3-.2h0Z"/>
  <path class="cls-17" d="M92.15,44.2c.8-.2,1.8-.5,2.7-.7s1.9-.4,2.8-.6c.7-.2,4.2-1.3,4.8-1.8l.1-.1c-.5,0-1.1.1-1.7.1-1.6,0-3.3-.2-4.7.2-1.3.6-3.4,2.1-4,2.9Z"/>
  <path class="cls-1" d="M103.65,39c1.6,0,4.3-4.1,4.2-6.4-2.5-.7-4.8-.4-6.7,1-1.5,1-2.8,3.6-3.2,5.2.4-.2,1.2-1.2,1.6-1.6.9-1,2.2-2,3.4-2.7.3-.2.7-.3,1-.5.3-.1.8-.2,1.1-.3h.4c-.3.2-.7.4-1,.7l-2.2,1.8q-.2.2-.4.3l-1.3,1.1c-.2.1-.2.2-.4.4-1.2,1.1-1.3.9-1.9,1.3,1.4,0,2.9.2,4.3-.1.3.1.9,0,1.1-.2"/>
  <path class="cls-19" d="M46.95,39.6h.4c-.1-.6-.3-.9-.6-1.2-.5-.3-.8-.8-1.3-1.2-.7-.5-1.1-1.3-2.9-2.4-.7-.4-2.7-1.5-3.7-1.4.1.1,6.3,5.2,7.4,5.8l.7.4h0Z"/>
  <path class="cls-14" d="M77.15,13.5c-.2-.7-.6-1.6-1.2-1.9l-.4-.3c-.1-.2-.2-.2-.3-.4-.2-.2-.2-.4-.7-.8l-1.6-2.4c-.2-.3-.4-.7-.7-.9-.3,0-.6.6-1,1.1.2.1.1.2,0,.4l-.2.4c-.2.3-.3.6-.5.9-.5.7-1.3,2.3-1.4,3.4-.2,1.6.4,2.8,1.2,3.5,2,2,5,1.4,6.8-.3l.1.2.1-.3c.2-.8.2-2.2-.2-2.6M70.75,9.9h0ZM72.65,11.4v-.3c.1-.5.4-.8.9-.9.3,0,.7.1.9.2l.1.1h.1q.1.1.2.2c.1.1-.3.1-.2.2,0,.1.4.1.4.2s.1.3.1.4h0c-.1.7-.2,1-.7,1.4h-.1c-.1.1-.3.1-.4.1h-.4c-.1,0-.1-.1-.2-.1h0c-.3-.2-.5-.4-.7-.7q0-.1-.1-.2c0-.1.1-.3.1-.6M76.75,15.6h0Z"/>
  <path class="cls-27" d="M77.25,16c-1.8,1.7-4.8,2.3-6.8.3-.8-.8-1.4-2-1.2-3.5.1-1,.9-2.6,1.4-3.4.2-.3.4-.6.5-.9.1-.2.1-.3.2-.4.1-.2.2-.3,0-.4l-2.7,3.2c-1.6,2.3-2.5,4.6-.7,7.3.9,1.3,3,2.8,5.5,2.1,1.8-.5,3.8-2.5,3.8-4.1v-.2ZM69.35,16.2q.1,0,0,0,.1,0,0,0h0Z"/>
  <path class="cls-2" d="M66.55,46.1c0,.4,0,.5.2.7l2.9-3c.9-1,1.9-2,2.8-3h-.1c-.3-.1-.2,0-.4.1-1.4.6-4.4,2.6-5.1,4.1-.3.3-.2.6-.3,1.1Z"/>
  <path class="cls-21" d="M97.75,39.1l-.3.7h.6c.7-.3.7-.2,2-1.4q.2-.2.4-.4l1.4-1.2q.2-.2.4-.4l2.4-2c.3-.3.7-.5,1-.7h-.4c-.2.1-.8.2-1.1.3-.4.1-.7.3-1.1.5-1.3.7-2.7,1.8-3.6,2.9-.4.3-1.4,1.3-1.7,1.7h0Z"/>
  <path class="cls-7" d="M105.95,49.6c0,.3.1,0,0,.3v-.3"/>
  <path class="cls-10" d="M71.45,73.3c0,.7.3,1.4.5,2.1.1.6.1,1.6.4,2,.2-.2.3-.9.3-1.2.2-.9.7-3.1.8-3.8q-.2.1-.5.1c-.2,0-.3,0-.5-.1-.4-.1-.6-.2-1,0v.9h0Z"/>
  <path class="cls-20" d="M85.35,60.6l-.5.7c-.2.2-1.4,2-1.5,2.4l1.8-1.7c.2-.1.5-.4.6-.5l9.5-6.4c.8-.5,1.5-1.1,2.4-1.6,1.5-.9,6.4-3.9,7.6-4.1-.3.3-1.1.9-1.2,1.1-.3.1-2.7,2.1-3,2.4l-3,2.3c-1,.8-2,1.5-3.1,2.2-.8.5-2.7,1.6-3,2.3,1.7-.9,2-1.2,3.6-2.2l6.7-4.7c.6-.4,1.1-.8,1.6-1.2l1.5-1.3h0c.5-.2,1.3-1.2,1.6-1.5l.5-.5c.4-.3,1.7-1.7,1.8-2.3-.3.1-1.1.4-1.5.6-7.1,2.9-11.5,4.1-17.9,9.5-.8.7-1.5,1.4-2.2,2l-2.3,2.5"/>
  <path class="cls-19" d="M72.35,0C48.15,0,28.45,19.6,28.45,43.9s19.6,43.9,43.9,43.9,43.9-19.7,43.9-43.9S96.65,0,72.35,0ZM72.65,87.7c-23.2,0-42-19.4-42-43.3S49.45,1.1,72.65,1.1s42,19.4,42,43.3-18.8,43.3-42,43.3Z"/>
  <path class="cls-4" d="M82.55,64.3l3.2-1.1s5.4-1.2,6.2-1.3c.8-.1,4.8-.9,4.8-.9,0,0,4-.8,6.8-2.5,2.9-1.7,6.4-6.9,6.4-6.9l1.2-2.3s1-3.8,1.1-5c0,0-5.2,2.2-8.3,2.2-3-.1-14.3,7.7-14.3,7.7,0,0-6,6.3-7.1,10.1Z"/>
  <path class="cls-30" d="M62.65,64.8s-3.3-.9-5.8-1.7c0,0-4.5-.4-6.7-1,0,0-5.9-1.4-7.8-2.9,0,0-4.2-2.3-5.4-4.4,0,0-2.5-3.3-2.8-4.8,0,0-1.4-3.6-1.3-5.3,0,0,2,1.8,4.8,1.4,0,0,5.5.8,8,2.2s7.1,3.9,8.3,5.1c1.1,1.1,5.1,3.7,6.6,6.3,1.4,2.5,2.1,5.1,2.1,5.1Z"/>
  <path class="cls-19" d="M95.35,57c1.1-.7,2.2-1.4,3.3-2.1l3.1-2.2c.3-.2,2.8-2.2,3.1-2.3.2-.2,1-.8,1.3-1.1-1.3.1-6.4,3-7.9,3.9-.9.5-1.6,1.1-2.5,1.6l-9.9,6.2c-.1.2-.4.4-.6.5l-1.9,1.6c.1-.3,1.1-1.9,1.5-2.3.4-.6.7-1,.9-1.3.2-.2.2-.3.3-.4.3-.4,1-1.2,1.5-1.6,1.2-1.3,3.7-3.4,4.7-4.1,4.5-3.2,9.7-5.8,15.2-7,.9-.2,3-.5,3.4-1.1-.7-.4-4.9-.3-5.9-.2-4.8.2-10.6,2.1-14.5,4.4-1.4.8-2.6,1.7-3.7,2.6-1.2,1-2.1,1.9-3.1,3.3-1.4,1.9-2.4,3.8-3.4,6.1-.2.6-.6,1.9-.9,2.2-.1-1.4.7-3.7.4-6.5-.1-1.1-1-5.1-1.7-5.4-.3.3-.4.8-.6,1.1l-2,3.1c-.7,1.1-2,2.9-2.3,4.6,1.2.4,1.5,4.2,1.5,5.8,0,2.4-.8,4.3-.9,6.4-.1.7-.6,2.9-.8,3.8-.1.3-.1,1-.3,1.2-.4-.4-.3-1.4-.4-2-.2-.7-.4-1.4-.5-2.1-.4-1.6-.6-1.7-1-3.9-1.4-8.1.4-12.8,4.9-19.2.6-.8,3.9-5.3,3.9-6.3l-.3.1-.6.5h0l-2.5,3.2c-3.7,4.7-7,7.5-7.2,13.9,0,.7,0,.9-.7,1.1-.5.2-1.6.2-2.1.3q-.1.2-.1.5c-.5.2,0,.1-.2-.1h0c0-.2-1.6-3.9-1.8-4.4-.7-1.5-2-3.7-3-4.8l-3.2-3.1c-4.9-3.8-11.1-6-17.5-6.4-1.1-.1-5.3-.2-6,.2.1.4,1,.6,1.4.7,6.9,1.7,11,3.1,16.9,7.2.9.6,2.9,2.1,3.7,2.9.4.4.8.6,1.1,1.1.3.1,2.5,2.6,2.6,2.9.4.2,1.9,2.3,2,2.9-.6-.2-4.7-3.3-5.3-3.7-.9-.6-1.8-1.2-2.8-1.8s-1.8-1.1-2.7-1.8c-1.6-1-4.1-2.5-5.6-3.4l-4.6-2.3c-.6-.2-1.1-.6-1.6-.7.1.2,0,0,.2.2l2.9,2.3c1.1.8,2.2,1.5,3.3,2.3,1.2.8,2.1,1.5,3.3,2.3.5.3,3,1.8,3.4,2.4.2.1.7.4.9.6.4.2.6.4,1,.6.5.3,1.5,1,1.9,1.2l1.4.9c.2.2.4.3.6.4q.2.1.3.2l.2.2v.1l.1.1c.2.1,1.2.8,1.4,1.1-.6-.1-1.2-.4-2-.6-2.5-.6-4-.7-6.3-1.1-3.7-.7-8-1.9-11-4.1-1.3-1-1.6-1.1-2.7-2.3l-1.2-1.3c-1.3-1.6-1.9-3.7-2.7-4.8.2,1.6.9,3.8,1.4,5.1,1.9,4.8,5.6,7.8,10.6,9.3,7,2.1,15.9,1.1,19.9,6.6.5.8,1.2,1.8,1.5,3,.3.5,1.4,3.6,1.4,4.3l.2.5c.1.2.1.3.2.6.1.4.2.7.3,1.1.2.5.5,1.8.7,2.1.2.2.8,1.9.7,2.4-1.2.2-5.5-.4-6.6-.6l-4.4-1.1c-.3-.1-.4-.1-.7-.2-.3-.1-.6-.1-.7-.3-.7-.3-1.5-.5-2.2-.8-2.6-1.1-5.9-2.9-8.2-4.5-1.9-1.4-1.9-1.5-3.5-2.9-.5-.4-1.2-1.1-1.6-1.7l-4.2-4.9c-.8-1.1-3-4.4-3.4-5.9-1.1-1.8-2.4-6.1-2.9-8.2-2.2-9.2-.9-20.2,3.4-28.1,1.4-2.6,3.8-6.2,5.7-8.3.9-.9.7-.9,2-2.1l2.2-2.1,3.1-2.5c1-.7,2.2-1.6,3.4-2.2,2.4-1.2,1.2-.9,2.7-2.9.7-.9,1.9-1.5,2.9-.9.4.2.4.5.7.8.4-.1,1-.4,1.4-.6,3.5-1.1,8.5-2,12.1-2,8,0,12.3,2.2,13.7,2.4.4-.4.7-1.1,1.9-.9.7.1,1.4.7,1.7,1.1,1.9,2.3.5,1.7,2.7,2.9,1.3.7,4.9,3.2,6.2,4.3l1.9,1.7c1.1,1,3.1,3.3,4,4.3.8,1,1.6,2.2,2.3,3.3.7,1.1,1.5,2.3,2.1,3.5,2.9,5.4,4.4,10.9,4.5,18,0,3.6-.2,6.9-.9,10.2-.5,2.2-1.8,6.7-2.9,8.3l-.8,1.8c-.4,1.1-1.5,2.5-2.1,3.3-.4.4-.7.9-1.1,1.4s-.7.9-1.1,1.4c-.8.9-1.6,1.9-2.4,2.6-.3.9-5.6,5.2-7,6.1-1.3.8-2.7,1.6-4.2,2.3-.7.4-1.5.7-2.3,1-.9.3-1.6.5-2.5.8-.3.4-.7.4-1.3.6-2.8.8-8.4,1.9-11,1.6-.1-.4.3-1.9.6-2.2.1-.6.5-1.6.7-2.1l.6-1.9v-.1q.1-.1.1-.2c-.1-.4.2-.8.3-1.2.3-.9.7-2.6,1.2-3.3.2-1,.9-2.2,1.4-2.8,3.8-5.8,12.8-4.3,19.9-6.7,5.3-1.8,8.4-4.3,10.7-9.3.4-.9,1.5-4.3,1.6-5.2-.1-.2,0,0-.4.7-.5,1-1.7,2.9-2.4,3.8l-1.2,1.4c-.2.2-.4.4-.6.6-.3.2-.4.3-.7.6-.4.4-.9.7-1.4,1.1-5.6,4.1-12.6,4-19.1,5.8.2-.2,2.8-2.1,3.2-2.3.2-.1.6-.4.9-.6.4-.3,5.7-3.8,6-4.1M68.45.3c-1.1-.2-5.6.9-6.8,1.2-4.6,1.2-7.1,2.5-11.1,4.8-1.9,1.1-3.1,1.8-4.8,3.2-.3.3-.8.6-1.1.9l-2,1.9c-1.7,1.5-3.4,3.4-4.7,5.3-2.3,3.1-4.1,6-5.9,10.1-3.4,8.3-4.3,17.9-2,27.3,1.2,4.9,3.5,9.8,6.1,13.8,1.2,1.9,2.9,3.9,4.5,5.6l1,1.1c4,4.6,12.2,9.4,20.5,11.4,13.4,3.1,27,.3,37.5-7.8.4-.3.7-.6,1.1-.9l2.1-1.8c.4-.4.7-.6,1.1-1l3.7-4.4c3-4,3.8-5.5,5.7-10.2,1.1-2.7,3.3-10.4,3-13v-1c.1-.4-.1-.2.2-.2v-4.6c-.2,0-.2-.1-.2-.4v-.6c.2-1.4-1.1-7-1.5-8.5-.8-2.6-1.6-5-2.8-7.3-1.2-2.4-2.4-4.3-3.8-6.3-.9-1.3-2.8-3.5-3.9-4.8-.2-.3-.3-.4-.6-.7l-4-3.6c-.5-.4-.9-.7-1.4-1.1-2-1.4-4-2.6-6.3-3.8-2.4-1.2-4.3-2.1-7.1-3-1.5-.5-6.9-1.8-8.4-1.6h-.6c-.3,0-.3.1-.3-.2h-5.5c-.1.2,0,.1-.3.2h-.5c-.3,0-.5.1-.9,0h0Z"/>
  <path class="cls-28" d="M75.05,11.6c0,.8-.5,1.5-1.1,1.5s-1.2-.6-1.2-1.4.5-1.6,1.1-1.5c.8.1,1.1.6,1.2,1.4Z"/>
  <path class="cls-19" d="M72.65,0C48.45,0,28.75,19.6,28.75,43.9s19.6,43.9,43.9,43.9,43.9-19.7,43.9-43.9S96.95,0,72.65,0ZM72.95,87.7c-23.2,0-42-19.4-42-43.3S49.75,1.1,72.95,1.1s42,19.4,42,43.3-18.8,43.3-42,43.3Z"/>
  <g class="cls-31">
    <path class="cls-24" d="M46.78,158.59c-.74.37-2.21.74-4.09.74-4.37,0-7.66-2.76-7.66-7.84s3.29-8.14,8.09-8.14c1.93,0,3.15.41,3.68.69l-.48,1.63c-.76-.37-1.84-.64-3.13-.64-3.63,0-6.05,2.32-6.05,6.39,0,3.79,2.18,6.23,5.96,6.23,1.22,0,2.46-.25,3.27-.64l.41,1.59Z"/>
    <path class="cls-24" d="M49.29,143.6h2v13.82h6.62v1.68h-8.62v-15.5Z"/>
    <path class="cls-24" d="M62.14,143.6v15.5h-2v-15.5h2Z"/>
    <path class="cls-24" d="M65.64,159.1v-15.5h2.18l4.97,7.84c1.15,1.82,2.05,3.45,2.78,5.04l.05-.02c-.18-2.07-.23-3.96-.23-6.37v-6.49h1.89v15.5h-2.02l-4.92-7.86c-1.08-1.72-2.12-3.5-2.9-5.17l-.07.02c.12,1.96.16,3.82.16,6.39v6.62h-1.89Z"/>
    <path class="cls-24" d="M82.77,143.6v15.5h-2v-15.5h2Z"/>
    <path class="cls-24" d="M97.1,158.59c-.74.37-2.21.74-4.09.74-4.37,0-7.66-2.76-7.66-7.84s3.29-8.14,8.09-8.14c1.93,0,3.15.41,3.68.69l-.48,1.63c-.76-.37-1.84-.64-3.13-.64-3.63,0-6.05,2.32-6.05,6.39,0,3.79,2.18,6.23,5.96,6.23,1.22,0,2.46-.25,3.27-.64l.41,1.59Z"/>
    <path class="cls-24" d="M99.33,156.66c.9.55,2.21,1.01,3.59,1.01,2.05,0,3.24-1.08,3.24-2.64,0-1.45-.83-2.28-2.92-3.08-2.53-.9-4.09-2.21-4.09-4.39,0-2.41,2-4.21,5.01-4.21,1.59,0,2.74.37,3.43.76l-.55,1.63c-.51-.28-1.54-.74-2.94-.74-2.12,0-2.92,1.26-2.92,2.32,0,1.45.94,2.16,3.08,2.99,2.62,1.01,3.96,2.28,3.96,4.55,0,2.39-1.77,4.46-5.43,4.46-1.49,0-3.13-.44-3.96-.99l.51-1.68Z"/>
  </g>
</svg>